<?xml version="1.0" encoding="UTF-8" standalone="no"?>
<!DOCTYPE svg PUBLIC "-//W3C//DTD SVG 1.1//EN"
 "http://www.w3.org/Graphics/SVG/1.1/DTD/svg11.dtd">
<!-- Generated by graphviz version 2.43.0 (0)
 -->
<!-- Title: G Pages: 1 -->
<svg width="597pt" height="228pt"
 viewBox="0.00 0.00 597.20 227.84" xmlns="http://www.w3.org/2000/svg" xmlns:xlink="http://www.w3.org/1999/xlink">
<g id="graph0" class="graph" transform="scale(1 1) rotate(0) translate(21.6 206.24)">
<title>G</title>
<polygon fill="#111111" stroke="transparent" points="-21.6,21.6 -21.6,-206.24 575.6,-206.24 575.6,21.6 -21.6,21.6"/>
<!-- app.ts -->
<g id="node1" class="node">
<title>app.ts</title>
<path fill="none" stroke="#c6c5fe" d="M203.33,-119.24C203.33,-119.24 164.67,-119.24 164.67,-119.24 160.83,-119.24 157,-115.4 157,-111.57 157,-111.57 157,-103.9 157,-103.9 157,-100.07 160.83,-96.24 164.67,-96.24 164.67,-96.24 203.33,-96.24 203.33,-96.24 207.17,-96.24 211,-100.07 211,-103.9 211,-103.9 211,-111.57 211,-111.57 211,-115.4 207.17,-119.24 203.33,-119.24"/>
<text text-anchor="middle" x="184" y="-104.04" font-family="Arial" font-size="14.00" fill="#c6c5fe">app.ts</text>
</g>
<!-- deals.ts -->
<g id="node2" class="node">
<title>deals.ts</title>
<path fill="none" stroke="#c6c5fe" d="M345.33,-119.24C345.33,-119.24 297.67,-119.24 297.67,-119.24 293.83,-119.24 290,-115.4 290,-111.57 290,-111.57 290,-103.9 290,-103.9 290,-100.07 293.83,-96.24 297.67,-96.24 297.67,-96.24 345.33,-96.24 345.33,-96.24 349.17,-96.24 353,-100.07 353,-103.9 353,-103.9 353,-111.57 353,-111.57 353,-115.4 349.17,-119.24 345.33,-119.24"/>
<text text-anchor="middle" x="321.5" y="-104.04" font-family="Arial" font-size="14.00" fill="#c6c5fe">deals.ts</text>
</g>
<!-- app.ts&#45;&gt;deals.ts -->
<g id="edge1" class="edge">
<title>app.ts&#45;&gt;deals.ts</title>
<path fill="none" stroke="#757575" d="M211.13,-107.74C230.51,-107.74 257.32,-107.74 279.54,-107.74"/>
<polygon fill="#757575" stroke="#757575" points="279.71,-111.24 289.71,-107.74 279.71,-104.24 279.71,-111.24"/>
</g>
<!-- safety.ts -->
<g id="node3" class="node">
<title>safety.ts</title>
<path fill="none" stroke="#cfffac" d="M518.33,-160.24C518.33,-160.24 467.67,-160.24 467.67,-160.24 463.83,-160.24 460,-156.4 460,-152.57 460,-152.57 460,-144.9 460,-144.9 460,-141.07 463.83,-137.24 467.67,-137.24 467.67,-137.24 518.33,-137.24 518.33,-137.24 522.17,-137.24 526,-141.07 526,-144.9 526,-144.9 526,-152.57 526,-152.57 526,-156.4 522.17,-160.24 518.33,-160.24"/>
<text text-anchor="middle" x="493" y="-145.04" font-family="Arial" font-size="14.00" fill="#cfffac">safety.ts</text>
</g>
<!-- app.ts&#45;&gt;safety.ts -->
<g id="edge2" class="edge">
<title>app.ts&#45;&gt;safety.ts</title>
<path fill="none" stroke="#757575" d="M192.3,-119.37C202.45,-134.31 222.39,-159.54 247,-169.74 314.34,-197.63 400.84,-178.98 450.98,-163.46"/>
<polygon fill="#757575" stroke="#757575" points="452.35,-166.69 460.81,-160.31 450.22,-160.03 452.35,-166.69"/>
</g>
<!-- deals.ts&#45;&gt;safety.ts -->
<g id="edge5" class="edge">
<title>deals.ts&#45;&gt;safety.ts</title>
<path fill="none" stroke="#757575" d="M353.2,-115.16C380.28,-121.71 420.01,-131.32 450.03,-138.58"/>
<polygon fill="#757575" stroke="#757575" points="449.26,-142 459.8,-140.95 450.91,-135.2 449.26,-142"/>
</g>
<!-- mockFacilitator.ts -->
<g id="node4" class="node">
<title>mockFacilitator.ts</title>
<path fill="none" stroke="#cfffac" d="M546.33,-100.24C546.33,-100.24 439.67,-100.24 439.67,-100.24 435.83,-100.24 432,-96.4 432,-92.57 432,-92.57 432,-84.9 432,-84.9 432,-81.07 435.83,-77.24 439.67,-77.24 439.67,-77.24 546.33,-77.24 546.33,-77.24 550.17,-77.24 554,-81.07 554,-84.9 554,-84.9 554,-92.57 554,-92.57 554,-96.4 550.17,-100.24 546.33,-100.24"/>
<text text-anchor="middle" x="493" y="-85.04" font-family="Arial" font-size="14.00" fill="#cfffac">mockFacilitator.ts</text>
</g>
<!-- deals.ts&#45;&gt;mockFacilitator.ts -->
<g id="edge3" class="edge">
<title>deals.ts&#45;&gt;mockFacilitator.ts</title>
<path fill="none" stroke="#757575" d="M353.2,-104.3C372.31,-102.15 397.72,-99.31 421.58,-96.63"/>
<polygon fill="#757575" stroke="#757575" points="422.13,-100.09 431.68,-95.5 421.35,-93.13 422.13,-100.09"/>
</g>
<!-- reputation.ts -->
<g id="node5" class="node">
<title>reputation.ts</title>
<path fill="none" stroke="#cfffac" d="M530.83,-39.24C530.83,-39.24 455.17,-39.24 455.17,-39.24 451.33,-39.24 447.5,-35.4 447.5,-31.57 447.5,-31.57 447.5,-23.9 447.5,-23.9 447.5,-20.07 451.33,-16.24 455.17,-16.24 455.17,-16.24 530.83,-16.24 530.83,-16.24 534.67,-16.24 538.5,-20.07 538.5,-23.9 538.5,-23.9 538.5,-31.57 538.5,-31.57 538.5,-35.4 534.67,-39.24 530.83,-39.24"/>
<text text-anchor="middle" x="493" y="-24.04" font-family="Arial" font-size="14.00" fill="#cfffac">reputation.ts</text>
</g>
<!-- deals.ts&#45;&gt;reputation.ts -->
<g id="edge4" class="edge">
<title>deals.ts&#45;&gt;reputation.ts</title>
<path fill="none" stroke="#757575" d="M347.15,-96.1C376.48,-82.26 425.6,-59.08 458.4,-43.6"/>
<polygon fill="#757575" stroke="#757575" points="460.05,-46.69 467.6,-39.25 457.06,-40.36 460.05,-46.69"/>
</g>
<!-- index.ts -->
<g id="node6" class="node">
<title>index.ts</title>
<path fill="none" stroke="#c6c5fe" d="M84.33,-119.24C84.33,-119.24 36.67,-119.24 36.67,-119.24 32.83,-119.24 29,-115.4 29,-111.57 29,-111.57 29,-103.9 29,-103.9 29,-100.07 32.83,-96.24 36.67,-96.24 36.67,-96.24 84.33,-96.24 84.33,-96.24 88.17,-96.24 92,-100.07 92,-103.9 92,-103.9 92,-111.57 92,-111.57 92,-115.4 88.17,-119.24 84.33,-119.24"/>
<text text-anchor="middle" x="60.5" y="-104.04" font-family="Arial" font-size="14.00" fill="#c6c5fe">index.ts</text>
</g>
<!-- index.ts&#45;&gt;app.ts -->
<g id="edge6" class="edge">
<title>index.ts&#45;&gt;app.ts</title>
<path fill="none" stroke="#757575" d="M92.16,-107.74C108.69,-107.74 129.2,-107.74 146.55,-107.74"/>
<polygon fill="#757575" stroke="#757575" points="146.88,-111.24 156.88,-107.74 146.88,-104.24 146.88,-111.24"/>
</g>
<!-- tests/deals.test.ts -->
<g id="node7" class="node">
<title>tests/deals.test.ts</title>
<path fill="none" stroke="#c6c5fe" d="M113.33,-78.24C113.33,-78.24 7.67,-78.24 7.67,-78.24 3.83,-78.24 0,-74.4 0,-70.57 0,-70.57 0,-62.9 0,-62.9 0,-59.07 3.83,-55.24 7.67,-55.24 7.67,-55.24 113.33,-55.24 113.33,-55.24 117.17,-55.24 121,-59.07 121,-62.9 121,-62.9 121,-70.57 121,-70.57 121,-74.4 117.17,-78.24 113.33,-78.24"/>
<text text-anchor="middle" x="60.5" y="-63.04" font-family="Arial" font-size="14.00" fill="#c6c5fe">tests/deals.test.ts</text>
</g>
<!-- tests/deals.test.ts&#45;&gt;app.ts -->
<g id="edge7" class="edge">
<title>tests/deals.test.ts&#45;&gt;app.ts</title>
<path fill="none" stroke="#757575" d="M95.67,-78.27C111.71,-83.68 130.83,-90.13 147.09,-95.62"/>
<polygon fill="#757575" stroke="#757575" points="146.19,-99.01 156.79,-98.89 148.43,-92.38 146.19,-99.01"/>
</g>
<!-- tests/deals.test.ts&#45;&gt;mockFacilitator.ts -->
<g id="edge8" class="edge">
<title>tests/deals.test.ts&#45;&gt;mockFacilitator.ts</title>
<path fill="none" stroke="#757575" d="M121.36,-69.8C200.09,-73.82 338.22,-80.88 421.79,-85.15"/>
<polygon fill="#757575" stroke="#757575" points="421.79,-88.65 431.96,-85.67 422.15,-81.66 421.79,-88.65"/>
</g>
<!-- tests/deals.test.ts&#45;&gt;reputation.ts -->
<g id="edge9" class="edge">
<title>tests/deals.test.ts&#45;&gt;reputation.ts</title>
<path fill="none" stroke="#757575" d="M88.19,-55.16C123.66,-40.47 188.66,-15.94 247,-6.74 312.41,3.58 330.16,0.38 396,-6.74 410.06,-8.26 425.08,-10.99 438.96,-14"/>
<polygon fill="#757575" stroke="#757575" points="438.31,-17.44 448.84,-16.22 439.85,-10.61 438.31,-17.44"/>
</g>
<!-- tests/reputation.test.ts -->
<g id="node8" class="node">
<title>tests/reputation.test.ts</title>
<path fill="none" stroke="#c6c5fe" d="M388.33,-39.24C388.33,-39.24 254.67,-39.24 254.67,-39.24 250.83,-39.24 247,-35.4 247,-31.57 247,-31.57 247,-23.9 247,-23.9 247,-20.07 250.83,-16.24 254.67,-16.24 254.67,-16.24 388.33,-16.24 388.33,-16.24 392.17,-16.24 396,-20.07 396,-23.9 396,-23.9 396,-31.57 396,-31.57 396,-35.4 392.17,-39.24 388.33,-39.24"/>
<text text-anchor="middle" x="321.5" y="-24.04" font-family="Arial" font-size="14.00" fill="#c6c5fe">tests/reputation.test.ts</text>
</g>
<!-- tests/reputation.test.ts&#45;&gt;reputation.ts -->
<g id="edge10" class="edge">
<title>tests/reputation.test.ts&#45;&gt;reputation.ts</title>
<path fill="none" stroke="#757575" d="M396.35,-27.74C410.01,-27.74 424.05,-27.74 437.02,-27.74"/>
<polygon fill="#757575" stroke="#757575" points="437.17,-31.24 447.17,-27.74 437.17,-24.24 437.17,-31.24"/>
</g>
<!-- tests/safety.test.ts -->
<g id="node9" class="node">
<title>tests/safety.test.ts</title>
<path fill="none" stroke="#c6c5fe" d="M375.83,-160.24C375.83,-160.24 267.17,-160.24 267.17,-160.24 263.33,-160.24 259.5,-156.4 259.5,-152.57 259.5,-152.57 259.5,-144.9 259.5,-144.9 259.5,-141.07 263.33,-137.24 267.17,-137.24 267.17,-137.24 375.83,-137.24 375.83,-137.24 379.67,-137.24 383.5,-141.07 383.5,-144.9 383.5,-144.9 383.5,-152.57 383.5,-152.57 383.5,-156.4 379.67,-160.24 375.83,-160.24"/>
<text text-anchor="middle" x="321.5" y="-145.04" font-family="Arial" font-size="14.00" fill="#c6c5fe">tests/safety.test.ts</text>
</g>
<!-- tests/safety.test.ts&#45;&gt;safety.ts -->
<g id="edge11" class="edge">
<title>tests/safety.test.ts&#45;&gt;safety.ts</title>
<path fill="none" stroke="#757575" d="M383.69,-148.74C405.66,-148.74 429.91,-148.74 449.9,-148.74"/>
<polygon fill="#757575" stroke="#757575" points="449.92,-152.24 459.92,-148.74 449.92,-145.24 449.92,-152.24"/>
</g>
</g>
</svg>
