<?xml version="1.0" encoding="UTF-8" standalone="no"?>
<!DOCTYPE svg PUBLIC "-//W3C//DTD SVG 1.1//EN"
 "http://www.w3.org/Graphics/SVG/1.1/DTD/svg11.dtd">
<!-- Generated by graphviz version 2.43.0 (0)
 -->
<!-- Title: G Pages: 1 -->
<svg width="1572pt" height="609pt"
 viewBox="0.00 0.00 1572.20 609.10" xmlns="http://www.w3.org/2000/svg" xmlns:xlink="http://www.w3.org/1999/xlink">
<g id="graph0" class="graph" transform="scale(1 1) rotate(0) translate(21.6 587.5)">
<title>G</title>
<polygon fill="#111111" stroke="transparent" points="-21.6,21.6 -21.6,-587.5 1550.6,-587.5 1550.6,21.6 -21.6,21.6"/>
<!-- chain/src/app.ts -->
<g id="node1" class="node">
<title>chain/src/app.ts</title>
<path fill="none" stroke="#c6c5fe" d="M690.83,-502C690.83,-502 595.17,-502 595.17,-502 591.33,-502 587.5,-498.17 587.5,-494.33 587.5,-494.33 587.5,-486.67 587.5,-486.67 587.5,-482.83 591.33,-479 595.17,-479 595.17,-479 690.83,-479 690.83,-479 694.67,-479 698.5,-482.83 698.5,-486.67 698.5,-486.67 698.5,-494.33 698.5,-494.33 698.5,-498.17 694.67,-502 690.83,-502"/>
<text text-anchor="middle" x="643" y="-486.8" font-family="Arial" font-size="14.00" fill="#c6c5fe">chain/src/app.ts</text>
</g>
<!-- chain/src/deals.ts -->
<g id="node2" class="node">
<title>chain/src/deals.ts</title>
<path fill="none" stroke="#c6c5fe" d="M906.83,-502C906.83,-502 801.17,-502 801.17,-502 797.33,-502 793.5,-498.17 793.5,-494.33 793.5,-494.33 793.5,-486.67 793.5,-486.67 793.5,-482.83 797.33,-479 801.17,-479 801.17,-479 906.83,-479 906.83,-479 910.67,-479 914.5,-482.83 914.5,-486.67 914.5,-486.67 914.5,-494.33 914.5,-494.33 914.5,-498.17 910.67,-502 906.83,-502"/>
<text text-anchor="middle" x="854" y="-486.8" font-family="Arial" font-size="14.00" fill="#c6c5fe">chain/src/deals.ts</text>
</g>
<!-- chain/src/app.ts&#45;&gt;chain/src/deals.ts -->
<g id="edge1" class="edge">
<title>chain/src/app.ts&#45;&gt;chain/src/deals.ts</title>
<path fill="none" stroke="#757575" d="M698.64,-490.5C724.38,-490.5 755.39,-490.5 782.84,-490.5"/>
<polygon fill="#757575" stroke="#757575" points="783.17,-494 793.17,-490.5 783.17,-487 783.17,-494"/>
</g>
<!-- chain/src/safety.ts -->
<g id="node3" class="node">
<title>chain/src/safety.ts</title>
<path fill="none" stroke="#cfffac" d="M1136.83,-543C1136.83,-543 1028.17,-543 1028.17,-543 1024.33,-543 1020.5,-539.17 1020.5,-535.33 1020.5,-535.33 1020.5,-527.67 1020.5,-527.67 1020.5,-523.83 1024.33,-520 1028.17,-520 1028.17,-520 1136.83,-520 1136.83,-520 1140.67,-520 1144.5,-523.83 1144.5,-527.67 1144.5,-527.67 1144.5,-535.33 1144.5,-535.33 1144.5,-539.17 1140.67,-543 1136.83,-543"/>
<text text-anchor="middle" x="1082.5" y="-527.8" font-family="Arial" font-size="14.00" fill="#cfffac">chain/src/safety.ts</text>
</g>
<!-- chain/src/app.ts&#45;&gt;chain/src/safety.ts -->
<g id="edge2" class="edge">
<title>chain/src/app.ts&#45;&gt;chain/src/safety.ts</title>
<path fill="none" stroke="#757575" d="M658.13,-502.01C677.62,-517.07 714.51,-542.69 751,-552.5 846.06,-578.05 961.8,-560.03 1028.03,-545.29"/>
<polygon fill="#757575" stroke="#757575" points="1028.86,-548.69 1037.83,-543.06 1027.31,-541.87 1028.86,-548.69"/>
</g>
<!-- chain/src/deals.ts&#45;&gt;chain/src/safety.ts -->
<g id="edge5" class="edge">
<title>chain/src/deals.ts&#45;&gt;chain/src/safety.ts</title>
<path fill="none" stroke="#757575" d="M914.51,-501.27C943.83,-506.58 979.41,-513.02 1010.18,-518.59"/>
<polygon fill="#757575" stroke="#757575" points="1009.95,-522.11 1020.42,-520.44 1011.2,-515.22 1009.95,-522.11"/>
</g>
<!-- chain/src/mockFacilitator.ts -->
<g id="node4" class="node">
<title>chain/src/mockFacilitator.ts</title>
<path fill="none" stroke="#cfffac" d="M1164.33,-484C1164.33,-484 1000.67,-484 1000.67,-484 996.83,-484 993,-480.17 993,-476.33 993,-476.33 993,-468.67 993,-468.67 993,-464.83 996.83,-461 1000.67,-461 1000.67,-461 1164.33,-461 1164.33,-461 1168.17,-461 1172,-464.83 1172,-468.67 1172,-468.67 1172,-476.33 1172,-476.33 1172,-480.17 1168.17,-484 1164.33,-484"/>
<text text-anchor="middle" x="1082.5" y="-468.8" font-family="Arial" font-size="14.00" fill="#cfffac">chain/src/mockFacilitator.ts</text>
</g>
<!-- chain/src/deals.ts&#45;&gt;chain/src/mockFacilitator.ts -->
<g id="edge3" class="edge">
<title>chain/src/deals.ts&#45;&gt;chain/src/mockFacilitator.ts</title>
<path fill="none" stroke="#757575" d="M914.51,-485.77C935.4,-484.11 959.48,-482.2 982.72,-480.35"/>
<polygon fill="#757575" stroke="#757575" points="983.28,-483.82 992.97,-479.54 982.73,-476.84 983.28,-483.82"/>
</g>
<!-- chain/src/reputation.ts -->
<g id="node5" class="node">
<title>chain/src/reputation.ts</title>
<path fill="none" stroke="#cfffac" d="M1149.33,-423C1149.33,-423 1015.67,-423 1015.67,-423 1011.83,-423 1008,-419.17 1008,-415.33 1008,-415.33 1008,-407.67 1008,-407.67 1008,-403.83 1011.83,-400 1015.67,-400 1015.67,-400 1149.33,-400 1149.33,-400 1153.17,-400 1157,-403.83 1157,-407.67 1157,-407.67 1157,-415.33 1157,-415.33 1157,-419.17 1153.17,-423 1149.33,-423"/>
<text text-anchor="middle" x="1082.5" y="-407.8" font-family="Arial" font-size="14.00" fill="#cfffac">chain/src/reputation.ts</text>
</g>
<!-- chain/src/deals.ts&#45;&gt;chain/src/reputation.ts -->
<g id="edge4" class="edge">
<title>chain/src/deals.ts&#45;&gt;chain/src/reputation.ts</title>
<path fill="none" stroke="#757575" d="M888.42,-478.84C928.35,-464.92 995.21,-441.6 1038.83,-426.38"/>
<polygon fill="#757575" stroke="#757575" points="1040.02,-429.67 1048.31,-423.08 1037.72,-423.06 1040.02,-429.67"/>
</g>
<!-- chain/src/index.ts -->
<g id="node6" class="node">
<title>chain/src/index.ts</title>
<path fill="none" stroke="#c6c5fe" d="M484.33,-503C484.33,-503 378.67,-503 378.67,-503 374.83,-503 371,-499.17 371,-495.33 371,-495.33 371,-487.67 371,-487.67 371,-483.83 374.83,-480 378.67,-480 378.67,-480 484.33,-480 484.33,-480 488.17,-480 492,-483.83 492,-487.67 492,-487.67 492,-495.33 492,-495.33 492,-499.17 488.17,-503 484.33,-503"/>
<text text-anchor="middle" x="431.5" y="-487.8" font-family="Arial" font-size="14.00" fill="#c6c5fe">chain/src/index.ts</text>
</g>
<!-- chain/src/index.ts&#45;&gt;chain/src/app.ts -->
<g id="edge6" class="edge">
<title>chain/src/index.ts&#45;&gt;chain/src/app.ts</title>
<path fill="none" stroke="#757575" d="M492.25,-491.21C518.74,-491.09 549.97,-490.94 577.04,-490.81"/>
<polygon fill="#757575" stroke="#757575" points="577.2,-494.31 587.19,-490.76 577.17,-487.31 577.2,-494.31"/>
</g>
<!-- chain/src/tests/deals.test.ts -->
<g id="node7" class="node">
<title>chain/src/tests/deals.test.ts</title>
<path fill="none" stroke="#c6c5fe" d="M513.33,-462C513.33,-462 349.67,-462 349.67,-462 345.83,-462 342,-458.17 342,-454.33 342,-454.33 342,-446.67 342,-446.67 342,-442.83 345.83,-439 349.67,-439 349.67,-439 513.33,-439 513.33,-439 517.17,-439 521,-442.83 521,-446.67 521,-446.67 521,-454.33 521,-454.33 521,-458.17 517.17,-462 513.33,-462"/>
<text text-anchor="middle" x="431.5" y="-446.8" font-family="Arial" font-size="14.00" fill="#c6c5fe">chain/src/tests/deals.test.ts</text>
</g>
<!-- chain/src/tests/deals.test.ts&#45;&gt;chain/src/app.ts -->
<g id="edge7" class="edge">
<title>chain/src/tests/deals.test.ts&#45;&gt;chain/src/app.ts</title>
<path fill="none" stroke="#757575" d="M492.82,-462.02C519.29,-467.07 550.41,-473.01 577.36,-478.16"/>
<polygon fill="#757575" stroke="#757575" points="576.99,-481.65 587.47,-480.09 578.3,-474.78 576.99,-481.65"/>
</g>
<!-- chain/src/tests/deals.test.ts&#45;&gt;chain/src/mockFacilitator.ts -->
<g id="edge8" class="edge">
<title>chain/src/tests/deals.test.ts&#45;&gt;chain/src/mockFacilitator.ts</title>
<path fill="none" stroke="#757575" d="M521.04,-453.5C641.69,-457.59 857.08,-464.89 982.8,-469.15"/>
<polygon fill="#757575" stroke="#757575" points="982.7,-472.65 992.81,-469.49 982.94,-465.66 982.7,-472.65"/>
</g>
<!-- chain/src/tests/deals.test.ts&#45;&gt;chain/src/reputation.ts -->
<g id="edge9" class="edge">
<title>chain/src/tests/deals.test.ts&#45;&gt;chain/src/reputation.ts</title>
<path fill="none" stroke="#757575" d="M521.04,-445.18C646.55,-437.64 874.57,-423.94 997.53,-416.55"/>
<polygon fill="#757575" stroke="#757575" points="997.87,-420.03 1007.65,-415.94 997.45,-413.04 997.87,-420.03"/>
</g>
<!-- chain/src/tests/reputation.test.ts -->
<g id="node8" class="node">
<title>chain/src/tests/reputation.test.ts</title>
<path fill="none" stroke="#c6c5fe" d="M949.33,-384C949.33,-384 758.67,-384 758.67,-384 754.83,-384 751,-380.17 751,-376.33 751,-376.33 751,-368.67 751,-368.67 751,-364.83 754.83,-361 758.67,-361 758.67,-361 949.33,-361 949.33,-361 953.17,-361 957,-364.83 957,-368.67 957,-368.67 957,-376.33 957,-376.33 957,-380.17 953.17,-384 949.33,-384"/>
<text text-anchor="middle" x="854" y="-368.8" font-family="Arial" font-size="14.00" fill="#c6c5fe">chain/src/tests/reputation.test.ts</text>
</g>
<!-- chain/src/tests/reputation.test.ts&#45;&gt;chain/src/reputation.ts -->
<g id="edge10" class="edge">
<title>chain/src/tests/reputation.test.ts&#45;&gt;chain/src/reputation.ts</title>
<path fill="none" stroke="#757575" d="M922.04,-384.04C947.95,-388.5 977.75,-393.64 1004.53,-398.25"/>
<polygon fill="#757575" stroke="#757575" points="1004.18,-401.74 1014.63,-399.99 1005.37,-394.84 1004.18,-401.74"/>
</g>
<!-- chain/src/tests/safety.test.ts -->
<g id="node9" class="node">
<title>chain/src/tests/safety.test.ts</title>
<path fill="none" stroke="#c6c5fe" d="M937.33,-543C937.33,-543 770.67,-543 770.67,-543 766.83,-543 763,-539.17 763,-535.33 763,-535.33 763,-527.67 763,-527.67 763,-523.83 766.83,-520 770.67,-520 770.67,-520 937.33,-520 937.33,-520 941.17,-520 945,-523.83 945,-527.67 945,-527.67 945,-535.33 945,-535.33 945,-539.17 941.17,-543 937.33,-543"/>
<text text-anchor="middle" x="854" y="-527.8" font-family="Arial" font-size="14.00" fill="#c6c5fe">chain/src/tests/safety.test.ts</text>
</g>
<!-- chain/src/tests/safety.test.ts&#45;&gt;chain/src/safety.ts -->
<g id="edge11" class="edge">
<title>chain/src/tests/safety.test.ts&#45;&gt;chain/src/safety.ts</title>
<path fill="none" stroke="#757575" d="M945.17,-531.5C966.7,-531.5 989.39,-531.5 1009.95,-531.5"/>
<polygon fill="#757575" stroke="#757575" points="1010.17,-535 1020.17,-531.5 1010.17,-528 1010.17,-535"/>
</g>
<!-- intake/src/app.ts -->
<g id="node10" class="node">
<title>intake/src/app.ts</title>
<path fill="none" stroke="#c6c5fe" d="M692.83,-223C692.83,-223 593.17,-223 593.17,-223 589.33,-223 585.5,-219.17 585.5,-215.33 585.5,-215.33 585.5,-207.67 585.5,-207.67 585.5,-203.83 589.33,-200 593.17,-200 593.17,-200 692.83,-200 692.83,-200 696.67,-200 700.5,-203.83 700.5,-207.67 700.5,-207.67 700.5,-215.33 700.5,-215.33 700.5,-219.17 696.67,-223 692.83,-223"/>
<text text-anchor="middle" x="643" y="-207.8" font-family="Arial" font-size="14.00" fill="#c6c5fe">intake/src/app.ts</text>
</g>
<!-- intake/src/matchmaker.ts -->
<g id="node11" class="node">
<title>intake/src/matchmaker.ts</title>
<path fill="none" stroke="#c6c5fe" d="M1158.33,-224C1158.33,-224 1006.67,-224 1006.67,-224 1002.83,-224 999,-220.17 999,-216.33 999,-216.33 999,-208.67 999,-208.67 999,-204.83 1002.83,-201 1006.67,-201 1006.67,-201 1158.33,-201 1158.33,-201 1162.17,-201 1166,-204.83 1166,-208.67 1166,-208.67 1166,-216.33 1166,-216.33 1166,-220.17 1162.17,-224 1158.33,-224"/>
<text text-anchor="middle" x="1082.5" y="-208.8" font-family="Arial" font-size="14.00" fill="#c6c5fe">intake/src/matchmaker.ts</text>
</g>
<!-- intake/src/app.ts&#45;&gt;intake/src/matchmaker.ts -->
<g id="edge12" class="edge">
<title>intake/src/app.ts&#45;&gt;intake/src/matchmaker.ts</title>
<path fill="none" stroke="#757575" d="M700.75,-211.63C773.69,-211.8 901.32,-212.09 988.54,-212.29"/>
<polygon fill="#757575" stroke="#757575" points="988.7,-215.79 998.7,-212.31 988.71,-208.79 988.7,-215.79"/>
</g>
<!-- intake/src/routes.ts -->
<g id="node12" class="node">
<title>intake/src/routes.ts</title>
<path fill="none" stroke="#c6c5fe" d="M911.33,-263C911.33,-263 796.67,-263 796.67,-263 792.83,-263 789,-259.17 789,-255.33 789,-255.33 789,-247.67 789,-247.67 789,-243.83 792.83,-240 796.67,-240 796.67,-240 911.33,-240 911.33,-240 915.17,-240 919,-243.83 919,-247.67 919,-247.67 919,-255.33 919,-255.33 919,-259.17 915.17,-263 911.33,-263"/>
<text text-anchor="middle" x="854" y="-247.8" font-family="Arial" font-size="14.00" fill="#c6c5fe">intake/src/routes.ts</text>
</g>
<!-- intake/src/app.ts&#45;&gt;intake/src/routes.ts -->
<g id="edge13" class="edge">
<title>intake/src/app.ts&#45;&gt;intake/src/routes.ts</title>
<path fill="none" stroke="#757575" d="M700.56,-222.32C725.86,-227.17 755.94,-232.92 782.67,-238.04"/>
<polygon fill="#757575" stroke="#757575" points="782.26,-241.52 792.74,-239.97 783.57,-234.65 782.26,-241.52"/>
</g>
<!-- intake/src/seed.ts -->
<g id="node13" class="node">
<title>intake/src/seed.ts</title>
<path fill="none" stroke="#c6c5fe" d="M1135.83,-183C1135.83,-183 1029.17,-183 1029.17,-183 1025.33,-183 1021.5,-179.17 1021.5,-175.33 1021.5,-175.33 1021.5,-167.67 1021.5,-167.67 1021.5,-163.83 1025.33,-160 1029.17,-160 1029.17,-160 1135.83,-160 1135.83,-160 1139.67,-160 1143.5,-163.83 1143.5,-167.67 1143.5,-167.67 1143.5,-175.33 1143.5,-175.33 1143.5,-179.17 1139.67,-183 1135.83,-183"/>
<text text-anchor="middle" x="1082.5" y="-167.8" font-family="Arial" font-size="14.00" fill="#c6c5fe">intake/src/seed.ts</text>
</g>
<!-- intake/src/app.ts&#45;&gt;intake/src/seed.ts -->
<g id="edge14" class="edge">
<title>intake/src/app.ts&#45;&gt;intake/src/seed.ts</title>
<path fill="none" stroke="#757575" d="M700.75,-206.31C780.37,-199.03 925.13,-185.8 1011.38,-177.91"/>
<polygon fill="#757575" stroke="#757575" points="1011.71,-181.4 1021.35,-177 1011.07,-174.42 1011.71,-181.4"/>
</g>
<!-- intake/src/store.ts -->
<g id="node14" class="node">
<title>intake/src/store.ts</title>
<path fill="none" stroke="#c6c5fe" d="M1341.33,-244C1341.33,-244 1234.67,-244 1234.67,-244 1230.83,-244 1227,-240.17 1227,-236.33 1227,-236.33 1227,-228.67 1227,-228.67 1227,-224.83 1230.83,-221 1234.67,-221 1234.67,-221 1341.33,-221 1341.33,-221 1345.17,-221 1349,-224.83 1349,-228.67 1349,-228.67 1349,-236.33 1349,-236.33 1349,-240.17 1345.17,-244 1341.33,-244"/>
<text text-anchor="middle" x="1288" y="-228.8" font-family="Arial" font-size="14.00" fill="#c6c5fe">intake/src/store.ts</text>
</g>
<!-- intake/src/app.ts&#45;&gt;intake/src/store.ts -->
<g id="edge15" class="edge">
<title>intake/src/app.ts&#45;&gt;intake/src/store.ts</title>
<path fill="none" stroke="#757575" d="M672.86,-199.92C753.76,-169.2 988.76,-91.86 1172,-150.5 1210.73,-162.89 1247.53,-193.63 1268.66,-213.75"/>
<polygon fill="#757575" stroke="#757575" points="1266.36,-216.4 1275.96,-220.89 1271.25,-211.39 1266.36,-216.4"/>
</g>
<!-- intake/src/matchmaker.ts&#45;&gt;intake/src/store.ts -->
<g id="edge17" class="edge">
<title>intake/src/matchmaker.ts&#45;&gt;intake/src/store.ts</title>
<path fill="none" stroke="#757575" d="M1166.27,-220.63C1183.04,-222.28 1200.52,-224 1216.8,-225.6"/>
<polygon fill="#757575" stroke="#757575" points="1216.47,-229.09 1226.77,-226.58 1217.16,-222.12 1216.47,-229.09"/>
</g>
<!-- intake/src/routes.ts&#45;&gt;intake/src/matchmaker.ts -->
<g id="edge19" class="edge">
<title>intake/src/routes.ts&#45;&gt;intake/src/matchmaker.ts</title>
<path fill="none" stroke="#757575" d="M919.3,-240.43C945.86,-235.86 976.86,-230.52 1004.61,-225.74"/>
<polygon fill="#757575" stroke="#757575" points="1005.41,-229.15 1014.67,-224.01 1004.22,-222.25 1005.41,-229.15"/>
</g>
<!-- intake/src/routes.ts&#45;&gt;intake/src/store.ts -->
<g id="edge20" class="edge">
<title>intake/src/routes.ts&#45;&gt;intake/src/store.ts</title>
<path fill="none" stroke="#757575" d="M919.21,-248.68C998.97,-245.17 1134.57,-239.2 1216.95,-235.58"/>
<polygon fill="#757575" stroke="#757575" points="1217.13,-239.08 1226.97,-235.14 1216.83,-232.08 1217.13,-239.08"/>
</g>
<!-- intake/src/identity.ts -->
<g id="node15" class="node">
<title>intake/src/identity.ts</title>
<path fill="none" stroke="#cfffac" d="M1141.83,-304C1141.83,-304 1023.17,-304 1023.17,-304 1019.33,-304 1015.5,-300.17 1015.5,-296.33 1015.5,-296.33 1015.5,-288.67 1015.5,-288.67 1015.5,-284.83 1019.33,-281 1023.17,-281 1023.17,-281 1141.83,-281 1141.83,-281 1145.67,-281 1149.5,-284.83 1149.5,-288.67 1149.5,-288.67 1149.5,-296.33 1149.5,-296.33 1149.5,-300.17 1145.67,-304 1141.83,-304"/>
<text text-anchor="middle" x="1082.5" y="-288.8" font-family="Arial" font-size="14.00" fill="#cfffac">intake/src/identity.ts</text>
</g>
<!-- intake/src/routes.ts&#45;&gt;intake/src/identity.ts -->
<g id="edge18" class="edge">
<title>intake/src/routes.ts&#45;&gt;intake/src/identity.ts</title>
<path fill="none" stroke="#757575" d="M918.7,-263.03C946.44,-268.05 979.12,-273.97 1007.89,-279.18"/>
<polygon fill="#757575" stroke="#757575" points="1007.43,-282.65 1017.89,-280.99 1008.67,-275.76 1007.43,-282.65"/>
</g>
<!-- intake/src/seed.ts&#45;&gt;intake/src/store.ts -->
<g id="edge21" class="edge">
<title>intake/src/seed.ts&#45;&gt;intake/src/store.ts</title>
<path fill="none" stroke="#757575" d="M1139.47,-183.08C1150.32,-185.62 1161.56,-188.47 1172,-191.5 1197.71,-198.96 1226.05,-209.04 1248.16,-217.34"/>
<polygon fill="#757575" stroke="#757575" points="1246.94,-220.62 1257.54,-220.89 1249.42,-214.07 1246.94,-220.62"/>
</g>
<!-- intake/src/types.ts -->
<g id="node17" class="node">
<title>intake/src/types.ts</title>
<path fill="none" stroke="#cfffac" d="M1521.33,-323C1521.33,-323 1411.67,-323 1411.67,-323 1407.83,-323 1404,-319.17 1404,-315.33 1404,-315.33 1404,-307.67 1404,-307.67 1404,-303.83 1407.83,-300 1411.67,-300 1411.67,-300 1521.33,-300 1521.33,-300 1525.17,-300 1529,-303.83 1529,-307.67 1529,-307.67 1529,-315.33 1529,-315.33 1529,-319.17 1525.17,-323 1521.33,-323"/>
<text text-anchor="middle" x="1466.5" y="-307.8" font-family="Arial" font-size="14.00" fill="#cfffac">intake/src/types.ts</text>
</g>
<!-- intake/src/store.ts&#45;&gt;intake/src/types.ts -->
<g id="edge22" class="edge">
<title>intake/src/store.ts&#45;&gt;intake/src/types.ts</title>
<path fill="none" stroke="#757575" d="M1315.04,-244.16C1345.5,-257.79 1396.08,-280.43 1430.09,-295.65"/>
<polygon fill="#757575" stroke="#757575" points="1429.08,-299.03 1439.64,-299.92 1431.94,-292.64 1429.08,-299.03"/>
</g>
<!-- intake/src/index.ts -->
<g id="node16" class="node">
<title>intake/src/index.ts</title>
<path fill="none" stroke="#c6c5fe" d="M486.33,-265C486.33,-265 376.67,-265 376.67,-265 372.83,-265 369,-261.17 369,-257.33 369,-257.33 369,-249.67 369,-249.67 369,-245.83 372.83,-242 376.67,-242 376.67,-242 486.33,-242 486.33,-242 490.17,-242 494,-245.83 494,-249.67 494,-249.67 494,-257.33 494,-257.33 494,-261.17 490.17,-265 486.33,-265"/>
<text text-anchor="middle" x="431.5" y="-249.8" font-family="Arial" font-size="14.00" fill="#c6c5fe">intake/src/index.ts</text>
</g>
<!-- intake/src/index.ts&#45;&gt;intake/src/app.ts -->
<g id="edge16" class="edge">
<title>intake/src/index.ts&#45;&gt;intake/src/app.ts</title>
<path fill="none" stroke="#757575" d="M490.02,-241.97C516.46,-236.67 547.96,-230.35 575.42,-224.85"/>
<polygon fill="#757575" stroke="#757575" points="576.21,-228.26 585.33,-222.86 574.84,-221.4 576.21,-228.26"/>
</g>
<!-- intake/src/tests/api.test.ts -->
<g id="node18" class="node">
<title>intake/src/tests/api.test.ts</title>
<path fill="none" stroke="#c6c5fe" d="M507.83,-183C507.83,-183 355.17,-183 355.17,-183 351.33,-183 347.5,-179.17 347.5,-175.33 347.5,-175.33 347.5,-167.67 347.5,-167.67 347.5,-163.83 351.33,-160 355.17,-160 355.17,-160 507.83,-160 507.83,-160 511.67,-160 515.5,-163.83 515.5,-167.67 515.5,-167.67 515.5,-175.33 515.5,-175.33 515.5,-179.17 511.67,-183 507.83,-183"/>
<text text-anchor="middle" x="431.5" y="-167.8" font-family="Arial" font-size="14.00" fill="#c6c5fe">intake/src/tests/api.test.ts</text>
</g>
<!-- intake/src/tests/api.test.ts&#45;&gt;intake/src/app.ts -->
<g id="edge23" class="edge">
<title>intake/src/tests/api.test.ts&#45;&gt;intake/src/app.ts</title>
<path fill="none" stroke="#757575" d="M492.82,-183.02C518.65,-187.95 548.9,-193.73 575.39,-198.78"/>
<polygon fill="#757575" stroke="#757575" points="574.86,-202.24 585.34,-200.68 576.18,-195.37 574.86,-202.24"/>
</g>
<!-- intake/src/tests/store.test.ts -->
<g id="node19" class="node">
<title>intake/src/tests/store.test.ts</title>
<path fill="none" stroke="#c6c5fe" d="M936.33,-304C936.33,-304 771.67,-304 771.67,-304 767.83,-304 764,-300.17 764,-296.33 764,-296.33 764,-288.67 764,-288.67 764,-284.83 767.83,-281 771.67,-281 771.67,-281 936.33,-281 936.33,-281 940.17,-281 944,-284.83 944,-288.67 944,-288.67 944,-296.33 944,-296.33 944,-300.17 940.17,-304 936.33,-304"/>
<text text-anchor="middle" x="854" y="-288.8" font-family="Arial" font-size="14.00" fill="#c6c5fe">intake/src/tests/store.test.ts</text>
</g>
<!-- intake/src/tests/store.test.ts&#45;&gt;intake/src/matchmaker.ts -->
<g id="edge25" class="edge">
<title>intake/src/tests/store.test.ts&#45;&gt;intake/src/matchmaker.ts</title>
<path fill="none" stroke="#757575" d="M922.54,-280.98C934.16,-278.32 946.03,-275.17 957,-271.5 990.79,-260.2 1027.41,-242.07 1052.13,-228.89"/>
<polygon fill="#757575" stroke="#757575" points="1053.85,-231.94 1060.99,-224.1 1050.53,-225.78 1053.85,-231.94"/>
</g>
<!-- intake/src/tests/store.test.ts&#45;&gt;intake/src/store.ts -->
<g id="edge26" class="edge">
<title>intake/src/tests/store.test.ts&#45;&gt;intake/src/store.ts</title>
<path fill="none" stroke="#757575" d="M894.89,-304.01C956.09,-319.69 1076.11,-342.57 1172,-312.5 1210.27,-300.5 1246.96,-270.75 1268.23,-251.11"/>
<polygon fill="#757575" stroke="#757575" points="1270.74,-253.55 1275.59,-244.14 1265.92,-248.47 1270.74,-253.55"/>
</g>
<!-- intake/src/tests/store.test.ts&#45;&gt;intake/src/identity.ts -->
<g id="edge24" class="edge">
<title>intake/src/tests/store.test.ts&#45;&gt;intake/src/identity.ts</title>
<path fill="none" stroke="#757575" d="M944.19,-292.5C964.43,-292.5 985.75,-292.5 1005.39,-292.5"/>
<polygon fill="#757575" stroke="#757575" points="1005.49,-296 1015.49,-292.5 1005.49,-289 1005.49,-296"/>
</g>
<!-- intake/src/tests/store.test.ts&#45;&gt;intake/src/types.ts -->
<g id="edge27" class="edge">
<title>intake/src/tests/store.test.ts&#45;&gt;intake/src/types.ts</title>
<path fill="none" stroke="#757575" d="M907.39,-304.06C923.48,-308.08 941.12,-312.99 957,-318.5 973.54,-324.24 975.87,-330.87 993,-334.5 1136.45,-364.94 1309.66,-341.73 1401.32,-324.9"/>
<polygon fill="#757575" stroke="#757575" points="1402.1,-328.31 1411.28,-323.04 1400.81,-321.43 1402.1,-328.31"/>
</g>
<!-- negotiate/src/index.ts -->
<g id="node20" class="node">
<title>negotiate/src/index.ts</title>
<path fill="none" stroke="#c6c5fe" d="M707.33,-103C707.33,-103 578.67,-103 578.67,-103 574.83,-103 571,-99.17 571,-95.33 571,-95.33 571,-87.67 571,-87.67 571,-83.83 574.83,-80 578.67,-80 578.67,-80 707.33,-80 707.33,-80 711.17,-80 715,-83.83 715,-87.67 715,-87.67 715,-95.33 715,-95.33 715,-99.17 711.17,-103 707.33,-103"/>
<text text-anchor="middle" x="643" y="-87.8" font-family="Arial" font-size="14.00" fill="#c6c5fe">negotiate/src/index.ts</text>
</g>
<!-- negotiate/src/room.ts -->
<g id="node21" class="node">
<title>negotiate/src/room.ts</title>
<path fill="none" stroke="#c6c5fe" d="M1146.33,-63C1146.33,-63 1018.67,-63 1018.67,-63 1014.83,-63 1011,-59.17 1011,-55.33 1011,-55.33 1011,-47.67 1011,-47.67 1011,-43.83 1014.83,-40 1018.67,-40 1018.67,-40 1146.33,-40 1146.33,-40 1150.17,-40 1154,-43.83 1154,-47.67 1154,-47.67 1154,-55.33 1154,-55.33 1154,-59.17 1150.17,-63 1146.33,-63"/>
<text text-anchor="middle" x="1082.5" y="-47.8" font-family="Arial" font-size="14.00" fill="#c6c5fe">negotiate/src/room.ts</text>
</g>
<!-- negotiate/src/index.ts&#45;&gt;negotiate/src/room.ts -->
<g id="edge28" class="edge">
<title>negotiate/src/index.ts&#45;&gt;negotiate/src/room.ts</title>
<path fill="none" stroke="#757575" d="M695.2,-79.98C712.8,-76.41 732.69,-72.81 751,-70.5 835.88,-59.78 933.8,-55.1 1000.89,-53.07"/>
<polygon fill="#757575" stroke="#757575" points="1001.08,-56.56 1010.97,-52.77 1000.87,-49.57 1001.08,-56.56"/>
</g>
<!-- negotiate/src/settle.ts -->
<g id="node22" class="node">
<title>negotiate/src/settle.ts</title>
<path fill="none" stroke="#c6c5fe" d="M918.33,-103C918.33,-103 789.67,-103 789.67,-103 785.83,-103 782,-99.17 782,-95.33 782,-95.33 782,-87.67 782,-87.67 782,-83.83 785.83,-80 789.67,-80 789.67,-80 918.33,-80 918.33,-80 922.17,-80 926,-83.83 926,-87.67 926,-87.67 926,-95.33 926,-95.33 926,-99.17 922.17,-103 918.33,-103"/>
<text text-anchor="middle" x="854" y="-87.8" font-family="Arial" font-size="14.00" fill="#c6c5fe">negotiate/src/settle.ts</text>
</g>
<!-- negotiate/src/index.ts&#45;&gt;negotiate/src/settle.ts -->
<g id="edge29" class="edge">
<title>negotiate/src/index.ts&#45;&gt;negotiate/src/settle.ts</title>
<path fill="none" stroke="#757575" d="M715.05,-91.5C733.22,-91.5 752.9,-91.5 771.55,-91.5"/>
<polygon fill="#757575" stroke="#757575" points="771.79,-95 781.79,-91.5 771.79,-88 771.79,-95"/>
</g>
<!-- negotiate/src/protocol.ts -->
<g id="node23" class="node">
<title>negotiate/src/protocol.ts</title>
<path fill="none" stroke="#cfffac" d="M1360.33,-63C1360.33,-63 1215.67,-63 1215.67,-63 1211.83,-63 1208,-59.17 1208,-55.33 1208,-55.33 1208,-47.67 1208,-47.67 1208,-43.83 1211.83,-40 1215.67,-40 1215.67,-40 1360.33,-40 1360.33,-40 1364.17,-40 1368,-43.83 1368,-47.67 1368,-47.67 1368,-55.33 1368,-55.33 1368,-59.17 1364.17,-63 1360.33,-63"/>
<text text-anchor="middle" x="1288" y="-47.8" font-family="Arial" font-size="14.00" fill="#cfffac">negotiate/src/protocol.ts</text>
</g>
<!-- negotiate/src/room.ts&#45;&gt;negotiate/src/protocol.ts -->
<g id="edge30" class="edge">
<title>negotiate/src/room.ts&#45;&gt;negotiate/src/protocol.ts</title>
<path fill="none" stroke="#757575" d="M1154.1,-51.5C1168.19,-51.5 1183.15,-51.5 1197.77,-51.5"/>
<polygon fill="#757575" stroke="#757575" points="1197.82,-55 1207.82,-51.5 1197.82,-48 1197.82,-55"/>
</g>
<!-- negotiate/src/settle.ts&#45;&gt;negotiate/src/room.ts -->
<g id="edge31" class="edge">
<title>negotiate/src/settle.ts&#45;&gt;negotiate/src/room.ts</title>
<path fill="none" stroke="#757575" d="M920.21,-79.98C947.1,-75.24 978.42,-69.7 1006.27,-64.79"/>
<polygon fill="#757575" stroke="#757575" points="1007.12,-68.19 1016.36,-63 1005.9,-61.3 1007.12,-68.19"/>
</g>
<!-- negotiate/src/tests/room.test.ts -->
<g id="node24" class="node">
<title>negotiate/src/tests/room.test.ts</title>
<path fill="none" stroke="#c6c5fe" d="M946.83,-23C946.83,-23 761.17,-23 761.17,-23 757.33,-23 753.5,-19.17 753.5,-15.33 753.5,-15.33 753.5,-7.67 753.5,-7.67 753.5,-3.83 757.33,0 761.17,0 761.17,0 946.83,0 946.83,0 950.67,0 954.5,-3.83 954.5,-7.67 954.5,-7.67 954.5,-15.33 954.5,-15.33 954.5,-19.17 950.67,-23 946.83,-23"/>
<text text-anchor="middle" x="854" y="-7.8" font-family="Arial" font-size="14.00" fill="#c6c5fe">negotiate/src/tests/room.test.ts</text>
</g>
<!-- negotiate/src/tests/room.test.ts&#45;&gt;negotiate/src/room.ts -->
<g id="edge32" class="edge">
<title>negotiate/src/tests/room.test.ts&#45;&gt;negotiate/src/room.ts</title>
<path fill="none" stroke="#757575" d="M920.21,-23.02C947.1,-27.76 978.42,-33.3 1006.27,-38.21"/>
<polygon fill="#757575" stroke="#757575" points="1005.9,-41.7 1016.36,-40 1007.12,-34.81 1005.9,-41.7"/>
</g>
<!-- negotiate/src/tests/server.test.ts -->
<g id="node25" class="node">
<title>negotiate/src/tests/server.test.ts</title>
<path fill="none" stroke="#c6c5fe" d="M526.83,-103C526.83,-103 336.17,-103 336.17,-103 332.33,-103 328.5,-99.17 328.5,-95.33 328.5,-95.33 328.5,-87.67 328.5,-87.67 328.5,-83.83 332.33,-80 336.17,-80 336.17,-80 526.83,-80 526.83,-80 530.67,-80 534.5,-83.83 534.5,-87.67 534.5,-87.67 534.5,-95.33 534.5,-95.33 534.5,-99.17 530.67,-103 526.83,-103"/>
<text text-anchor="middle" x="431.5" y="-87.8" font-family="Arial" font-size="14.00" fill="#c6c5fe">negotiate/src/tests/server.test.ts</text>
</g>
<!-- negotiate/src/tests/server.test.ts&#45;&gt;negotiate/src/index.ts -->
<g id="edge33" class="edge">
<title>negotiate/src/tests/server.test.ts&#45;&gt;negotiate/src/index.ts</title>
<path fill="none" stroke="#757575" d="M534.8,-91.5C543.43,-91.5 552.1,-91.5 560.55,-91.5"/>
<polygon fill="#757575" stroke="#757575" points="560.73,-95 570.73,-91.5 560.73,-88 560.73,-95"/>
</g>
<!-- orchestrator/src/run&#45;e2e.ts -->
<g id="node26" class="node">
<title>orchestrator/src/run&#45;e2e.ts</title>
<path fill="none" stroke="#c6c5fe" d="M225.83,-224C225.83,-224 66.17,-224 66.17,-224 62.33,-224 58.5,-220.17 58.5,-216.33 58.5,-216.33 58.5,-208.67 58.5,-208.67 58.5,-204.83 62.33,-201 66.17,-201 66.17,-201 225.83,-201 225.83,-201 229.67,-201 233.5,-204.83 233.5,-208.67 233.5,-208.67 233.5,-216.33 233.5,-216.33 233.5,-220.17 229.67,-224 225.83,-224"/>
<text text-anchor="middle" x="146" y="-208.8" font-family="Arial" font-size="14.00" fill="#c6c5fe">orchestrator/src/run&#45;e2e.ts</text>
</g>
<!-- orchestrator/src/run&#45;e2e.ts&#45;&gt;chain/src/reputation.ts -->
<g id="edge34" class="edge">
<title>orchestrator/src/run&#45;e2e.ts&#45;&gt;chain/src/reputation.ts</title>
<path fill="none" stroke="#757575" d="M175.33,-224.02C210.54,-237.88 272.73,-260.85 328,-273.5 465.32,-304.93 821.76,-313.06 957,-352.5 991.61,-362.59 1028.63,-381.26 1053.22,-394.9"/>
<polygon fill="#757575" stroke="#757575" points="1051.58,-397.99 1062.01,-399.85 1055.01,-391.89 1051.58,-397.99"/>
</g>
<!-- orchestrator/src/start&#45;all.ts -->
<g id="node27" class="node">
<title>orchestrator/src/start&#45;all.ts</title>
<path fill="none" stroke="#c6c5fe" d="M510.33,-224C510.33,-224 352.67,-224 352.67,-224 348.83,-224 345,-220.17 345,-216.33 345,-216.33 345,-208.67 345,-208.67 345,-204.83 348.83,-201 352.67,-201 352.67,-201 510.33,-201 510.33,-201 514.17,-201 518,-204.83 518,-208.67 518,-208.67 518,-216.33 518,-216.33 518,-220.17 514.17,-224 510.33,-224"/>
<text text-anchor="middle" x="431.5" y="-208.8" font-family="Arial" font-size="14.00" fill="#c6c5fe">orchestrator/src/start&#45;all.ts</text>
</g>
<!-- orchestrator/src/run&#45;e2e.ts&#45;&gt;orchestrator/src/start&#45;all.ts -->
<g id="edge35" class="edge">
<title>orchestrator/src/run&#45;e2e.ts&#45;&gt;orchestrator/src/start&#45;all.ts</title>
<path fill="none" stroke="#757575" d="M233.6,-212.5C265.62,-212.5 302.09,-212.5 334.87,-212.5"/>
<polygon fill="#757575" stroke="#757575" points="334.92,-216 344.92,-212.5 334.92,-209 334.92,-216"/>
</g>
<!-- reference&#45;agent/src/negotiate.ts -->
<g id="node28" class="node">
<title>reference&#45;agent/src/negotiate.ts</title>
<path fill="none" stroke="#cfffac" d="M527.33,-62C527.33,-62 335.67,-62 335.67,-62 331.83,-62 328,-58.17 328,-54.33 328,-54.33 328,-46.67 328,-46.67 328,-42.83 331.83,-39 335.67,-39 335.67,-39 527.33,-39 527.33,-39 531.17,-39 535,-42.83 535,-46.67 535,-46.67 535,-54.33 535,-54.33 535,-58.17 531.17,-62 527.33,-62"/>
<text text-anchor="middle" x="431.5" y="-46.8" font-family="Arial" font-size="14.00" fill="#cfffac">reference&#45;agent/src/negotiate.ts</text>
</g>
<!-- orchestrator/src/run&#45;e2e.ts&#45;&gt;reference&#45;agent/src/negotiate.ts -->
<g id="edge36" class="edge">
<title>orchestrator/src/run&#45;e2e.ts&#45;&gt;reference&#45;agent/src/negotiate.ts</title>
<path fill="none" stroke="#757575" d="M186.55,-200.92C218.32,-189.94 262.36,-170.73 292,-141.5 317.19,-116.66 299.77,-91.83 328,-70.5 329.63,-69.27 331.31,-68.11 333.04,-67.02"/>
<polygon fill="#757575" stroke="#757575" points="334.96,-69.95 342.04,-62.07 331.59,-63.82 334.96,-69.95"/>
</g>
<!-- orchestrator/src/start&#45;all.ts&#45;&gt;chain/src/app.ts -->
<g id="edge37" class="edge">
<title>orchestrator/src/start&#45;all.ts&#45;&gt;chain/src/app.ts</title>
<path fill="none" stroke="#757575" d="M518.04,-222.16C524.13,-224.91 529.88,-228.31 535,-232.5 610.75,-294.41 633.56,-418.97 639.83,-468.99"/>
<polygon fill="#757575" stroke="#757575" points="636.36,-469.46 640.98,-479 643.31,-468.66 636.36,-469.46"/>
</g>
<!-- orchestrator/src/start&#45;all.ts&#45;&gt;intake/src/app.ts -->
<g id="edge38" class="edge">
<title>orchestrator/src/start&#45;all.ts&#45;&gt;intake/src/app.ts</title>
<path fill="none" stroke="#757575" d="M518.01,-212.09C537.02,-212 556.9,-211.91 575.03,-211.82"/>
<polygon fill="#757575" stroke="#757575" points="575.22,-215.32 585.2,-211.77 575.18,-208.32 575.22,-215.32"/>
</g>
<!-- orchestrator/src/start&#45;all.ts&#45;&gt;negotiate/src/index.ts -->
<g id="edge39" class="edge">
<title>orchestrator/src/start&#45;all.ts&#45;&gt;negotiate/src/index.ts</title>
<path fill="none" stroke="#757575" d="M511.54,-200.95C519.69,-198.4 527.66,-195.29 535,-191.5 573.26,-171.74 607.73,-134.35 626.68,-111.32"/>
<polygon fill="#757575" stroke="#757575" points="629.62,-113.24 633.15,-103.26 624.16,-108.86 629.62,-113.24"/>
</g>
<!-- reference&#45;agent/src/index.ts -->
<g id="node29" class="node">
<title>reference&#45;agent/src/index.ts</title>
<path fill="none" stroke="#c6c5fe" d="M230.33,-72C230.33,-72 61.67,-72 61.67,-72 57.83,-72 54,-68.17 54,-64.33 54,-64.33 54,-56.67 54,-56.67 54,-52.83 57.83,-49 61.67,-49 61.67,-49 230.33,-49 230.33,-49 234.17,-49 238,-52.83 238,-56.67 238,-56.67 238,-64.33 238,-64.33 238,-68.17 234.17,-72 230.33,-72"/>
<text text-anchor="middle" x="146" y="-56.8" font-family="Arial" font-size="14.00" fill="#c6c5fe">reference&#45;agent/src/index.ts</text>
</g>
<!-- reference&#45;agent/src/index.ts&#45;&gt;reference&#45;agent/src/negotiate.ts -->
<g id="edge40" class="edge">
<title>reference&#45;agent/src/index.ts&#45;&gt;reference&#45;agent/src/negotiate.ts</title>
<path fill="none" stroke="#757575" d="M238.26,-57.28C263.52,-56.39 291.25,-55.41 317.58,-54.48"/>
<polygon fill="#757575" stroke="#757575" points="317.73,-57.98 327.6,-54.13 317.48,-50.98 317.73,-57.98"/>
</g>
<!-- reference&#45;agent/src/tests/e2e&#45;negotiate.test.ts -->
<g id="node30" class="node">
<title>reference&#45;agent/src/tests/e2e&#45;negotiate.test.ts</title>
<path fill="none" stroke="#c6c5fe" d="M284.33,-133C284.33,-133 7.67,-133 7.67,-133 3.83,-133 0,-129.17 0,-125.33 0,-125.33 0,-117.67 0,-117.67 0,-113.83 3.83,-110 7.67,-110 7.67,-110 284.33,-110 284.33,-110 288.17,-110 292,-113.83 292,-117.67 292,-117.67 292,-125.33 292,-125.33 292,-129.17 288.17,-133 284.33,-133"/>
<text text-anchor="middle" x="146" y="-117.8" font-family="Arial" font-size="14.00" fill="#c6c5fe">reference&#45;agent/src/tests/e2e&#45;negotiate.test.ts</text>
</g>
<!-- reference&#45;agent/src/tests/e2e&#45;negotiate.test.ts&#45;&gt;negotiate/src/index.ts -->
<g id="edge41" class="edge">
<title>reference&#45;agent/src/tests/e2e&#45;negotiate.test.ts&#45;&gt;negotiate/src/index.ts</title>
<path fill="none" stroke="#757575" d="M292.46,-123.22C365.44,-122.69 455.09,-119.94 535,-111.5 549.51,-109.97 564.99,-107.54 579.55,-104.9"/>
<polygon fill="#757575" stroke="#757575" points="580.27,-108.32 589.45,-103.04 578.98,-101.44 580.27,-108.32"/>
</g>
<!-- reference&#45;agent/src/tests/e2e&#45;negotiate.test.ts&#45;&gt;reference&#45;agent/src/negotiate.ts -->
<g id="edge42" class="edge">
<title>reference&#45;agent/src/tests/e2e&#45;negotiate.test.ts&#45;&gt;reference&#45;agent/src/negotiate.ts</title>
<path fill="none" stroke="#757575" d="M187.96,-109.92C240.27,-95.13 324.51,-71.33 328,-70.5 337.46,-68.25 347.45,-66.06 357.34,-64.01"/>
<polygon fill="#757575" stroke="#757575" points="358.07,-67.44 367.17,-62.01 356.67,-60.58 358.07,-67.44"/>
</g>
<!-- reference&#45;agent/src/tests/negotiate.test.ts -->
<g id="node31" class="node">
<title>reference&#45;agent/src/tests/negotiate.test.ts</title>
<path fill="none" stroke="#c6c5fe" d="M270.83,-31C270.83,-31 21.17,-31 21.17,-31 17.33,-31 13.5,-27.17 13.5,-23.33 13.5,-23.33 13.5,-15.67 13.5,-15.67 13.5,-11.83 17.33,-8 21.17,-8 21.17,-8 270.83,-8 270.83,-8 274.67,-8 278.5,-11.83 278.5,-15.67 278.5,-15.67 278.5,-23.33 278.5,-23.33 278.5,-27.17 274.67,-31 270.83,-31"/>
<text text-anchor="middle" x="146" y="-15.8" font-family="Arial" font-size="14.00" fill="#c6c5fe">reference&#45;agent/src/tests/negotiate.test.ts</text>
</g>
<!-- reference&#45;agent/src/tests/negotiate.test.ts&#45;&gt;reference&#45;agent/src/negotiate.ts -->
<g id="edge43" class="edge">
<title>reference&#45;agent/src/tests/negotiate.test.ts&#45;&gt;reference&#45;agent/src/negotiate.ts</title>
<path fill="none" stroke="#757575" d="M252.56,-31.04C273.77,-33.36 296.12,-35.81 317.56,-38.15"/>
<polygon fill="#757575" stroke="#757575" points="317.35,-41.65 327.67,-39.26 318.11,-34.69 317.35,-41.65"/>
</g>
</g>
</svg>
