<?xml version="1.0" encoding="UTF-8" standalone="no"?>
<!DOCTYPE svg PUBLIC "-//W3C//DTD SVG 1.1//EN"
 "http://www.w3.org/Graphics/SVG/1.1/DTD/svg11.dtd">
<!-- Generated by graphviz version 2.43.0 (0)
 -->
<!-- Title: G Pages: 1 -->
<svg width="733pt" height="258pt"
 viewBox="0.00 0.00 733.20 257.76" xmlns="http://www.w3.org/2000/svg" xmlns:xlink="http://www.w3.org/1999/xlink">
<g id="graph0" class="graph" transform="scale(1 1) rotate(0) translate(21.6 236.16)">
<title>G</title>
<polygon fill="#111111" stroke="transparent" points="-21.6,21.6 -21.6,-236.16 711.6,-236.16 711.6,21.6 -21.6,21.6"/>
<!-- app.ts -->
<g id="node1" class="node">
<title>app.ts</title>
<path fill="none" stroke="#c6c5fe" d="M189.33,-154.56C189.33,-154.56 150.67,-154.56 150.67,-154.56 146.83,-154.56 143,-150.73 143,-146.89 143,-146.89 143,-139.23 143,-139.23 143,-135.39 146.83,-131.56 150.67,-131.56 150.67,-131.56 189.33,-131.56 189.33,-131.56 193.17,-131.56 197,-135.39 197,-139.23 197,-139.23 197,-146.89 197,-146.89 197,-150.73 193.17,-154.56 189.33,-154.56"/>
<text text-anchor="middle" x="170" y="-139.36" font-family="Arial" font-size="14.00" fill="#c6c5fe">app.ts</text>
</g>
<!-- matchmaker.ts -->
<g id="node2" class="node">
<title>matchmaker.ts</title>
<path fill="none" stroke="#c6c5fe" d="M486.33,-96.56C486.33,-96.56 395.67,-96.56 395.67,-96.56 391.83,-96.56 388,-92.73 388,-88.89 388,-88.89 388,-81.23 388,-81.23 388,-77.39 391.83,-73.56 395.67,-73.56 395.67,-73.56 486.33,-73.56 486.33,-73.56 490.17,-73.56 494,-77.39 494,-81.23 494,-81.23 494,-88.89 494,-88.89 494,-92.73 490.17,-96.56 486.33,-96.56"/>
<text text-anchor="middle" x="441" y="-81.36" font-family="Arial" font-size="14.00" fill="#c6c5fe">matchmaker.ts</text>
</g>
<!-- app.ts&#45;&gt;matchmaker.ts -->
<g id="edge1" class="edge">
<title>app.ts&#45;&gt;matchmaker.ts</title>
<path fill="none" stroke="#757575" d="M184.21,-131.43C196.08,-121.72 214.46,-108.47 233,-102.06 279.75,-85.88 335.84,-82.16 377.83,-82.19"/>
<polygon fill="#757575" stroke="#757575" points="377.89,-85.69 387.92,-82.27 377.95,-78.69 377.89,-85.69"/>
</g>
<!-- routes.ts -->
<g id="node3" class="node">
<title>routes.ts</title>
<path fill="none" stroke="#c6c5fe" d="M318.83,-134.56C318.83,-134.56 266.17,-134.56 266.17,-134.56 262.33,-134.56 258.5,-130.73 258.5,-126.89 258.5,-126.89 258.5,-119.23 258.5,-119.23 258.5,-115.39 262.33,-111.56 266.17,-111.56 266.17,-111.56 318.83,-111.56 318.83,-111.56 322.67,-111.56 326.5,-115.39 326.5,-119.23 326.5,-119.23 326.5,-126.89 326.5,-126.89 326.5,-130.73 322.67,-134.56 318.83,-134.56"/>
<text text-anchor="middle" x="292.5" y="-119.36" font-family="Arial" font-size="14.00" fill="#c6c5fe">routes.ts</text>
</g>
<!-- app.ts&#45;&gt;routes.ts -->
<g id="edge2" class="edge">
<title>app.ts&#45;&gt;routes.ts</title>
<path fill="none" stroke="#757575" d="M197.15,-138.72C211.94,-136.26 230.81,-133.13 247.79,-130.31"/>
<polygon fill="#757575" stroke="#757575" points="248.77,-133.7 258.06,-128.61 247.62,-126.79 248.77,-133.7"/>
</g>
<!-- seed.ts -->
<g id="node4" class="node">
<title>seed.ts</title>
<path fill="none" stroke="#c6c5fe" d="M463.33,-214.56C463.33,-214.56 418.67,-214.56 418.67,-214.56 414.83,-214.56 411,-210.73 411,-206.89 411,-206.89 411,-199.23 411,-199.23 411,-195.39 414.83,-191.56 418.67,-191.56 418.67,-191.56 463.33,-191.56 463.33,-191.56 467.17,-191.56 471,-195.39 471,-199.23 471,-199.23 471,-206.89 471,-206.89 471,-210.73 467.17,-214.56 463.33,-214.56"/>
<text text-anchor="middle" x="441" y="-199.36" font-family="Arial" font-size="14.00" fill="#c6c5fe">seed.ts</text>
</g>
<!-- app.ts&#45;&gt;seed.ts -->
<g id="edge3" class="edge">
<title>app.ts&#45;&gt;seed.ts</title>
<path fill="none" stroke="#757575" d="M187.84,-154.58C199.88,-162.23 216.77,-171.8 233,-177.06 289.38,-195.32 358.26,-200.86 400.62,-202.48"/>
<polygon fill="#757575" stroke="#757575" points="400.69,-205.98 410.8,-202.81 400.92,-198.99 400.69,-205.98"/>
</g>
<!-- store.ts -->
<g id="node5" class="node">
<title>store.ts</title>
<path fill="none" stroke="#c6c5fe" d="M583.33,-116.56C583.33,-116.56 537.67,-116.56 537.67,-116.56 533.83,-116.56 530,-112.73 530,-108.89 530,-108.89 530,-101.23 530,-101.23 530,-97.39 533.83,-93.56 537.67,-93.56 537.67,-93.56 583.33,-93.56 583.33,-93.56 587.17,-93.56 591,-97.39 591,-101.23 591,-101.23 591,-108.89 591,-108.89 591,-112.73 587.17,-116.56 583.33,-116.56"/>
<text text-anchor="middle" x="560.5" y="-101.36" font-family="Arial" font-size="14.00" fill="#c6c5fe">store.ts</text>
</g>
<!-- app.ts&#45;&gt;store.ts -->
<g id="edge4" class="edge">
<title>app.ts&#45;&gt;store.ts</title>
<path fill="none" stroke="#757575" d="M197.35,-144.71C252.95,-147.57 386.01,-150.99 494,-127.06 502.59,-125.16 511.63,-122.54 520.16,-119.77"/>
<polygon fill="#757575" stroke="#757575" points="521.52,-123 529.88,-116.49 519.28,-116.37 521.52,-123"/>
</g>
<!-- matchmaker.ts&#45;&gt;store.ts -->
<g id="edge6" class="edge">
<title>matchmaker.ts&#45;&gt;store.ts</title>
<path fill="none" stroke="#757575" d="M494.22,-93.95C502.84,-95.41 511.65,-96.91 519.89,-98.32"/>
<polygon fill="#757575" stroke="#757575" points="519.53,-101.81 529.98,-100.03 520.71,-94.91 519.53,-101.81"/>
</g>
<!-- routes.ts&#45;&gt;matchmaker.ts -->
<g id="edge8" class="edge">
<title>routes.ts&#45;&gt;matchmaker.ts</title>
<path fill="none" stroke="#757575" d="M326.74,-114.44C344.15,-109.92 365.9,-104.28 385.68,-99.15"/>
<polygon fill="#757575" stroke="#757575" points="386.7,-102.5 395.5,-96.6 384.94,-95.72 386.7,-102.5"/>
</g>
<!-- routes.ts&#45;&gt;store.ts -->
<g id="edge9" class="edge">
<title>routes.ts&#45;&gt;store.ts</title>
<path fill="none" stroke="#757575" d="M326.65,-120.82C375.51,-117.51 466.74,-111.34 519.33,-107.78"/>
<polygon fill="#757575" stroke="#757575" points="519.88,-111.25 529.63,-107.08 519.41,-104.26 519.88,-111.25"/>
</g>
<!-- identity.ts -->
<g id="node6" class="node">
<title>identity.ts</title>
<path fill="none" stroke="#cfffac" d="M469.83,-55.56C469.83,-55.56 412.17,-55.56 412.17,-55.56 408.33,-55.56 404.5,-51.73 404.5,-47.89 404.5,-47.89 404.5,-40.23 404.5,-40.23 404.5,-36.39 408.33,-32.56 412.17,-32.56 412.17,-32.56 469.83,-32.56 469.83,-32.56 473.67,-32.56 477.5,-36.39 477.5,-40.23 477.5,-40.23 477.5,-47.89 477.5,-47.89 477.5,-51.73 473.67,-55.56 469.83,-55.56"/>
<text text-anchor="middle" x="441" y="-40.36" font-family="Arial" font-size="14.00" fill="#cfffac">identity.ts</text>
</g>
<!-- routes.ts&#45;&gt;identity.ts -->
<g id="edge7" class="edge">
<title>routes.ts&#45;&gt;identity.ts</title>
<path fill="none" stroke="#757575" d="M310.01,-111.39C328.44,-98.69 359.44,-78.3 388,-64.06 391.12,-62.5 394.4,-60.98 397.73,-59.53"/>
<polygon fill="#757575" stroke="#757575" points="399.25,-62.68 407.13,-55.6 396.56,-56.22 399.25,-62.68"/>
</g>
<!-- seed.ts&#45;&gt;store.ts -->
<g id="edge10" class="edge">
<title>seed.ts&#45;&gt;store.ts</title>
<path fill="none" stroke="#757575" d="M469.83,-191.49C477.99,-187.49 486.68,-182.6 494,-177.06 513.89,-162 532.63,-140.36 544.92,-124.74"/>
<polygon fill="#757575" stroke="#757575" points="547.74,-126.82 551.06,-116.76 542.19,-122.55 547.74,-126.82"/>
</g>
<!-- types.ts -->
<g id="node8" class="node">
<title>types.ts</title>
<path fill="none" stroke="#cfffac" d="M682.33,-36.56C682.33,-36.56 634.67,-36.56 634.67,-36.56 630.83,-36.56 627,-32.73 627,-28.89 627,-28.89 627,-21.23 627,-21.23 627,-17.39 630.83,-13.56 634.67,-13.56 634.67,-13.56 682.33,-13.56 682.33,-13.56 686.17,-13.56 690,-17.39 690,-21.23 690,-21.23 690,-28.89 690,-28.89 690,-32.73 686.17,-36.56 682.33,-36.56"/>
<text text-anchor="middle" x="658.5" y="-21.36" font-family="Arial" font-size="14.00" fill="#cfffac">types.ts</text>
</g>
<!-- store.ts&#45;&gt;types.ts -->
<g id="edge11" class="edge">
<title>store.ts&#45;&gt;types.ts</title>
<path fill="none" stroke="#757575" d="M575.67,-93.25C591.5,-80.06 617.32,-58.55 635.72,-43.21"/>
<polygon fill="#757575" stroke="#757575" points="638.15,-45.74 643.59,-36.65 633.67,-40.36 638.15,-45.74"/>
</g>
<!-- index.ts -->
<g id="node7" class="node">
<title>index.ts</title>
<path fill="none" stroke="#c6c5fe" d="M77.33,-175.56C77.33,-175.56 29.67,-175.56 29.67,-175.56 25.83,-175.56 22,-171.73 22,-167.89 22,-167.89 22,-160.23 22,-160.23 22,-156.39 25.83,-152.56 29.67,-152.56 29.67,-152.56 77.33,-152.56 77.33,-152.56 81.17,-152.56 85,-156.39 85,-160.23 85,-160.23 85,-167.89 85,-167.89 85,-171.73 81.17,-175.56 77.33,-175.56"/>
<text text-anchor="middle" x="53.5" y="-160.36" font-family="Arial" font-size="14.00" fill="#c6c5fe">index.ts</text>
</g>
<!-- index.ts&#45;&gt;app.ts -->
<g id="edge5" class="edge">
<title>index.ts&#45;&gt;app.ts</title>
<path fill="none" stroke="#757575" d="M85.18,-158.43C99.82,-155.75 117.44,-152.51 132.74,-149.71"/>
<polygon fill="#757575" stroke="#757575" points="133.69,-153.09 142.89,-147.85 132.43,-146.21 133.69,-153.09"/>
</g>
<!-- tests/api.test.ts -->
<g id="node9" class="node">
<title>tests/api.test.ts</title>
<path fill="none" stroke="#c6c5fe" d="M99.33,-134.56C99.33,-134.56 7.67,-134.56 7.67,-134.56 3.83,-134.56 0,-130.73 0,-126.89 0,-126.89 0,-119.23 0,-119.23 0,-115.39 3.83,-111.56 7.67,-111.56 7.67,-111.56 99.33,-111.56 99.33,-111.56 103.17,-111.56 107,-115.39 107,-119.23 107,-119.23 107,-126.89 107,-126.89 107,-130.73 103.17,-134.56 99.33,-134.56"/>
<text text-anchor="middle" x="53.5" y="-119.36" font-family="Arial" font-size="14.00" fill="#c6c5fe">tests/api.test.ts</text>
</g>
<!-- tests/api.test.ts&#45;&gt;app.ts -->
<g id="edge12" class="edge">
<title>tests/api.test.ts&#45;&gt;app.ts</title>
<path fill="none" stroke="#757575" d="M107.06,-132.24C115.82,-133.77 124.73,-135.33 132.96,-136.76"/>
<polygon fill="#757575" stroke="#757575" points="132.51,-140.24 142.96,-138.51 133.71,-133.34 132.51,-140.24"/>
</g>
<!-- tests/store.test.ts -->
<g id="node10" class="node">
<title>tests/store.test.ts</title>
<path fill="none" stroke="#c6c5fe" d="M344.33,-35.56C344.33,-35.56 240.67,-35.56 240.67,-35.56 236.83,-35.56 233,-31.73 233,-27.89 233,-27.89 233,-20.23 233,-20.23 233,-16.39 236.83,-12.56 240.67,-12.56 240.67,-12.56 344.33,-12.56 344.33,-12.56 348.17,-12.56 352,-16.39 352,-20.23 352,-20.23 352,-27.89 352,-27.89 352,-31.73 348.17,-35.56 344.33,-35.56"/>
<text text-anchor="middle" x="292.5" y="-20.36" font-family="Arial" font-size="14.00" fill="#c6c5fe">tests/store.test.ts</text>
</g>
<!-- tests/store.test.ts&#45;&gt;matchmaker.ts -->
<g id="edge14" class="edge">
<title>tests/store.test.ts&#45;&gt;matchmaker.ts</title>
<path fill="none" stroke="#757575" d="M320.74,-35.73C339.59,-43.77 365.28,-54.66 388,-64.06 392.43,-65.89 397.09,-67.8 401.71,-69.68"/>
<polygon fill="#757575" stroke="#757575" points="400.5,-72.97 411.08,-73.48 403.13,-66.48 400.5,-72.97"/>
</g>
<!-- tests/store.test.ts&#45;&gt;store.ts -->
<g id="edge15" class="edge">
<title>tests/store.test.ts&#45;&gt;store.ts</title>
<path fill="none" stroke="#757575" d="M341.45,-12.49C383.76,-4.84 446.01,0.03 494,-23.06 520.24,-35.68 539.25,-64.51 549.83,-84.39"/>
<polygon fill="#757575" stroke="#757575" points="546.7,-85.97 554.34,-93.31 552.95,-82.81 546.7,-85.97"/>
</g>
<!-- tests/store.test.ts&#45;&gt;identity.ts -->
<g id="edge13" class="edge">
<title>tests/store.test.ts&#45;&gt;identity.ts</title>
<path fill="none" stroke="#757575" d="M352.24,-32.08C366.33,-34 381.15,-36.02 394.53,-37.85"/>
<polygon fill="#757575" stroke="#757575" points="394.06,-41.32 404.44,-39.2 395.01,-34.38 394.06,-41.32"/>
</g>
<!-- tests/store.test.ts&#45;&gt;types.ts -->
<g id="edge16" class="edge">
<title>tests/store.test.ts&#45;&gt;types.ts</title>
<path fill="none" stroke="#757575" d="M335.98,-12.55C352.13,-8.72 370.79,-4.95 388,-3.06 468.93,5.83 563.9,-7.43 616.74,-16.9"/>
<polygon fill="#757575" stroke="#757575" points="616.26,-20.37 626.73,-18.73 617.53,-13.48 616.26,-20.37"/>
</g>
</g>
</svg>
