<?xml version="1.0" encoding="UTF-8" standalone="no"?>
<!DOCTYPE svg PUBLIC "-//W3C//DTD SVG 1.1//EN"
 "http://www.w3.org/Graphics/SVG/1.1/DTD/svg11.dtd">
<!-- Generated by graphviz version 2.43.0 (0)
 -->
<!-- Title: G Pages: 1 -->
<svg width="636pt" height="146pt"
 viewBox="0.00 0.00 636.20 146.20" xmlns="http://www.w3.org/2000/svg" xmlns:xlink="http://www.w3.org/1999/xlink">
<g id="graph0" class="graph" transform="scale(1 1) rotate(0) translate(21.6 124.6)">
<title>G</title>
<polygon fill="#111111" stroke="transparent" points="-21.6,21.6 -21.6,-124.6 614.6,-124.6 614.6,21.6 -21.6,21.6"/>
<!-- index.ts -->
<g id="node1" class="node">
<title>index.ts</title>
<path fill="none" stroke="#c6c5fe" d="M216.33,-43C216.33,-43 168.67,-43 168.67,-43 164.83,-43 161,-39.17 161,-35.33 161,-35.33 161,-27.67 161,-27.67 161,-23.83 164.83,-20 168.67,-20 168.67,-20 216.33,-20 216.33,-20 220.17,-20 224,-23.83 224,-27.67 224,-27.67 224,-35.33 224,-35.33 224,-39.17 220.17,-43 216.33,-43"/>
<text text-anchor="middle" x="192.5" y="-27.8" font-family="Arial" font-size="14.00" fill="#c6c5fe">index.ts</text>
</g>
<!-- room.ts -->
<g id="node2" class="node">
<title>room.ts</title>
<path fill="none" stroke="#c6c5fe" d="M470.33,-63C470.33,-63 423.67,-63 423.67,-63 419.83,-63 416,-59.17 416,-55.33 416,-55.33 416,-47.67 416,-47.67 416,-43.83 419.83,-40 423.67,-40 423.67,-40 470.33,-40 470.33,-40 474.17,-40 478,-43.83 478,-47.67 478,-47.67 478,-55.33 478,-55.33 478,-59.17 474.17,-63 470.33,-63"/>
<text text-anchor="middle" x="447" y="-47.8" font-family="Arial" font-size="14.00" fill="#c6c5fe">room.ts</text>
</g>
<!-- index.ts&#45;&gt;room.ts -->
<g id="edge1" class="edge">
<title>index.ts&#45;&gt;room.ts</title>
<path fill="none" stroke="#757575" d="M224.21,-33.93C269.73,-37.54 355.16,-44.3 405.67,-48.31"/>
<polygon fill="#757575" stroke="#757575" points="405.65,-51.81 415.9,-49.12 406.2,-44.84 405.65,-51.81"/>
</g>
<!-- settle.ts -->
<g id="node3" class="node">
<title>settle.ts</title>
<path fill="none" stroke="#c6c5fe" d="M343.83,-23C343.83,-23 296.17,-23 296.17,-23 292.33,-23 288.5,-19.17 288.5,-15.33 288.5,-15.33 288.5,-7.67 288.5,-7.67 288.5,-3.83 292.33,0 296.17,0 296.17,0 343.83,0 343.83,0 347.67,0 351.5,-3.83 351.5,-7.67 351.5,-7.67 351.5,-15.33 351.5,-15.33 351.5,-19.17 347.67,-23 343.83,-23"/>
<text text-anchor="middle" x="320" y="-7.8" font-family="Arial" font-size="14.00" fill="#c6c5fe">settle.ts</text>
</g>
<!-- index.ts&#45;&gt;settle.ts -->
<g id="edge2" class="edge">
<title>index.ts&#45;&gt;settle.ts</title>
<path fill="none" stroke="#757575" d="M224.2,-26.61C240.46,-24.02 260.64,-20.8 278.2,-18"/>
<polygon fill="#757575" stroke="#757575" points="278.86,-21.44 288.18,-16.41 277.75,-14.53 278.86,-21.44"/>
</g>
<!-- protocol.ts -->
<g id="node4" class="node">
<title>protocol.ts</title>
<path fill="none" stroke="#cfffac" d="M585.33,-63C585.33,-63 521.67,-63 521.67,-63 517.83,-63 514,-59.17 514,-55.33 514,-55.33 514,-47.67 514,-47.67 514,-43.83 517.83,-40 521.67,-40 521.67,-40 585.33,-40 585.33,-40 589.17,-40 593,-43.83 593,-47.67 593,-47.67 593,-55.33 593,-55.33 593,-59.17 589.17,-63 585.33,-63"/>
<text text-anchor="middle" x="553.5" y="-47.8" font-family="Arial" font-size="14.00" fill="#cfffac">protocol.ts</text>
</g>
<!-- room.ts&#45;&gt;protocol.ts -->
<g id="edge3" class="edge">
<title>room.ts&#45;&gt;protocol.ts</title>
<path fill="none" stroke="#757575" d="M478.23,-51.5C486.2,-51.5 495.01,-51.5 503.69,-51.5"/>
<polygon fill="#757575" stroke="#757575" points="503.76,-55 513.76,-51.5 503.76,-48 503.76,-55"/>
</g>
<!-- settle.ts&#45;&gt;room.ts -->
<g id="edge4" class="edge">
<title>settle.ts&#45;&gt;room.ts</title>
<path fill="none" stroke="#757575" d="M351.58,-21.29C367.89,-26.51 388.17,-32.99 405.75,-38.62"/>
<polygon fill="#757575" stroke="#757575" points="405.15,-42.1 415.74,-41.82 407.28,-35.43 405.15,-42.1"/>
</g>
<!-- tests/room.test.ts -->
<g id="node5" class="node">
<title>tests/room.test.ts</title>
<path fill="none" stroke="#c6c5fe" d="M372.33,-103C372.33,-103 267.67,-103 267.67,-103 263.83,-103 260,-99.17 260,-95.33 260,-95.33 260,-87.67 260,-87.67 260,-83.83 263.83,-80 267.67,-80 267.67,-80 372.33,-80 372.33,-80 376.17,-80 380,-83.83 380,-87.67 380,-87.67 380,-95.33 380,-95.33 380,-99.17 376.17,-103 372.33,-103"/>
<text text-anchor="middle" x="320" y="-87.8" font-family="Arial" font-size="14.00" fill="#c6c5fe">tests/room.test.ts</text>
</g>
<!-- tests/room.test.ts&#45;&gt;room.ts -->
<g id="edge5" class="edge">
<title>tests/room.test.ts&#45;&gt;room.ts</title>
<path fill="none" stroke="#757575" d="M357.16,-79.93C372.42,-75.05 390.24,-69.34 405.9,-64.33"/>
<polygon fill="#757575" stroke="#757575" points="407.38,-67.53 415.83,-61.15 405.24,-60.87 407.38,-67.53"/>
</g>
<!-- tests/server.test.ts -->
<g id="node6" class="node">
<title>tests/server.test.ts</title>
<path fill="none" stroke="#c6c5fe" d="M117.33,-43C117.33,-43 7.67,-43 7.67,-43 3.83,-43 0,-39.17 0,-35.33 0,-35.33 0,-27.67 0,-27.67 0,-23.83 3.83,-20 7.67,-20 7.67,-20 117.33,-20 117.33,-20 121.17,-20 125,-23.83 125,-27.67 125,-27.67 125,-35.33 125,-35.33 125,-39.17 121.17,-43 117.33,-43"/>
<text text-anchor="middle" x="62.5" y="-27.8" font-family="Arial" font-size="14.00" fill="#c6c5fe">tests/server.test.ts</text>
</g>
<!-- tests/server.test.ts&#45;&gt;index.ts -->
<g id="edge6" class="edge">
<title>tests/server.test.ts&#45;&gt;index.ts</title>
<path fill="none" stroke="#757575" d="M125.25,-31.5C133.87,-31.5 142.55,-31.5 150.66,-31.5"/>
<polygon fill="#757575" stroke="#757575" points="150.93,-35 160.93,-31.5 150.93,-28 150.93,-35"/>
</g>
</g>
</svg>
