<?xml version="1.0" encoding="UTF-8" standalone="no"?>
<!DOCTYPE svg PUBLIC "-//W3C//DTD SVG 1.1//EN"
 "http://www.w3.org/Graphics/SVG/1.1/DTD/svg11.dtd">
<!-- Generated by graphviz version 2.43.0 (0)
 -->
<!-- Title: G Pages: 1 -->
<svg width="1431pt" height="425pt"
 viewBox="0.00 0.00 1431.20 425.20" xmlns="http://www.w3.org/2000/svg" xmlns:xlink="http://www.w3.org/1999/xlink">
<g id="graph0" class="graph" transform="scale(1 1) rotate(0) translate(21.6 403.6)">
<title>G</title>
<polygon fill="#111111" stroke="transparent" points="-21.6,21.6 -21.6,-403.6 1409.6,-403.6 1409.6,21.6 -21.6,21.6"/>
<!-- ../../chain/src/app.ts -->
<g id="node1" class="node">
<title>../../chain/src/app.ts</title>
<path fill="none" stroke="#c6c5fe" d="M521.83,-300C521.83,-300 403.17,-300 403.17,-300 399.33,-300 395.5,-296.17 395.5,-292.33 395.5,-292.33 395.5,-284.67 395.5,-284.67 395.5,-280.83 399.33,-277 403.17,-277 403.17,-277 521.83,-277 521.83,-277 525.67,-277 529.5,-280.83 529.5,-284.67 529.5,-284.67 529.5,-292.33 529.5,-292.33 529.5,-296.17 525.67,-300 521.83,-300"/>
<text text-anchor="middle" x="462.5" y="-284.8" font-family="Arial" font-size="14.00" fill="#c6c5fe">../../chain/src/app.ts</text>
</g>
<!-- ../../chain/src/deals.ts -->
<g id="node2" class="node">
<title>../../chain/src/deals.ts</title>
<path fill="none" stroke="#c6c5fe" d="M729.33,-340C729.33,-340 601.67,-340 601.67,-340 597.83,-340 594,-336.17 594,-332.33 594,-332.33 594,-324.67 594,-324.67 594,-320.83 597.83,-317 601.67,-317 601.67,-317 729.33,-317 729.33,-317 733.17,-317 737,-320.83 737,-324.67 737,-324.67 737,-332.33 737,-332.33 737,-336.17 733.17,-340 729.33,-340"/>
<text text-anchor="middle" x="665.5" y="-324.8" font-family="Arial" font-size="14.00" fill="#c6c5fe">../../chain/src/deals.ts</text>
</g>
<!-- ../../chain/src/app.ts&#45;&gt;../../chain/src/deals.ts -->
<g id="edge1" class="edge">
<title>../../chain/src/app.ts&#45;&gt;../../chain/src/deals.ts</title>
<path fill="none" stroke="#757575" d="M521.37,-300.02C544.91,-304.7 572.29,-310.15 596.76,-315.02"/>
<polygon fill="#757575" stroke="#757575" points="596.2,-318.48 606.69,-317 597.57,-311.61 596.2,-318.48"/>
</g>
<!-- ../../chain/src/safety.ts -->
<g id="node3" class="node">
<title>../../chain/src/safety.ts</title>
<path fill="none" stroke="#cfffac" d="M951.33,-300C951.33,-300 820.67,-300 820.67,-300 816.83,-300 813,-296.17 813,-292.33 813,-292.33 813,-284.67 813,-284.67 813,-280.83 816.83,-277 820.67,-277 820.67,-277 951.33,-277 951.33,-277 955.17,-277 959,-280.83 959,-284.67 959,-284.67 959,-292.33 959,-292.33 959,-296.17 955.17,-300 951.33,-300"/>
<text text-anchor="middle" x="886" y="-284.8" font-family="Arial" font-size="14.00" fill="#cfffac">../../chain/src/safety.ts</text>
</g>
<!-- ../../chain/src/app.ts&#45;&gt;../../chain/src/safety.ts -->
<g id="edge2" class="edge">
<title>../../chain/src/app.ts&#45;&gt;../../chain/src/safety.ts</title>
<path fill="none" stroke="#757575" d="M529.82,-288.5C603.64,-288.5 722.99,-288.5 802.71,-288.5"/>
<polygon fill="#757575" stroke="#757575" points="802.71,-292 812.71,-288.5 802.71,-285 802.71,-292"/>
</g>
<!-- ../../chain/src/deals.ts&#45;&gt;../../chain/src/safety.ts -->
<g id="edge5" class="edge">
<title>../../chain/src/deals.ts&#45;&gt;../../chain/src/safety.ts</title>
<path fill="none" stroke="#757575" d="M729.41,-316.98C755.23,-312.26 785.29,-306.75 812.07,-301.85"/>
<polygon fill="#757575" stroke="#757575" points="812.95,-305.25 822.16,-300 811.69,-298.36 812.95,-305.25"/>
</g>
<!-- ../../chain/src/mockFacilitator.ts -->
<g id="node4" class="node">
<title>../../chain/src/mockFacilitator.ts</title>
<path fill="none" stroke="#cfffac" d="M979.33,-341C979.33,-341 792.67,-341 792.67,-341 788.83,-341 785,-337.17 785,-333.33 785,-333.33 785,-325.67 785,-325.67 785,-321.83 788.83,-318 792.67,-318 792.67,-318 979.33,-318 979.33,-318 983.17,-318 987,-321.83 987,-325.67 987,-325.67 987,-333.33 987,-333.33 987,-337.17 983.17,-341 979.33,-341"/>
<text text-anchor="middle" x="886" y="-325.8" font-family="Arial" font-size="14.00" fill="#cfffac">../../chain/src/mockFacilitator.ts</text>
</g>
<!-- ../../chain/src/deals.ts&#45;&gt;../../chain/src/mockFacilitator.ts -->
<g id="edge3" class="edge">
<title>../../chain/src/deals.ts&#45;&gt;../../chain/src/mockFacilitator.ts</title>
<path fill="none" stroke="#757575" d="M737.14,-328.82C749.14,-328.88 761.86,-328.94 774.6,-328.99"/>
<polygon fill="#757575" stroke="#757575" points="774.79,-332.5 784.8,-329.04 774.82,-325.5 774.79,-332.5"/>
</g>
<!-- ../../chain/src/reputation.ts -->
<g id="node5" class="node">
<title>../../chain/src/reputation.ts</title>
<path fill="none" stroke="#cfffac" d="M963.83,-382C963.83,-382 808.17,-382 808.17,-382 804.33,-382 800.5,-378.17 800.5,-374.33 800.5,-374.33 800.5,-366.67 800.5,-366.67 800.5,-362.83 804.33,-359 808.17,-359 808.17,-359 963.83,-359 963.83,-359 967.67,-359 971.5,-362.83 971.5,-366.67 971.5,-366.67 971.5,-374.33 971.5,-374.33 971.5,-378.17 967.67,-382 963.83,-382"/>
<text text-anchor="middle" x="886" y="-366.8" font-family="Arial" font-size="14.00" fill="#cfffac">../../chain/src/reputation.ts</text>
</g>
<!-- ../../chain/src/deals.ts&#45;&gt;../../chain/src/reputation.ts -->
<g id="edge4" class="edge">
<title>../../chain/src/deals.ts&#45;&gt;../../chain/src/reputation.ts</title>
<path fill="none" stroke="#757575" d="M726.5,-340.03C753.96,-345.31 786.67,-351.6 815.23,-357.09"/>
<polygon fill="#757575" stroke="#757575" points="814.66,-360.54 825.14,-358.99 815.98,-353.67 814.66,-360.54"/>
</g>
<!-- ../../intake/src/app.ts -->
<g id="node6" class="node">
<title>../../intake/src/app.ts</title>
<path fill="none" stroke="#c6c5fe" d="M523.33,-219C523.33,-219 401.67,-219 401.67,-219 397.83,-219 394,-215.17 394,-211.33 394,-211.33 394,-203.67 394,-203.67 394,-199.83 397.83,-196 401.67,-196 401.67,-196 523.33,-196 523.33,-196 527.17,-196 531,-199.83 531,-203.67 531,-203.67 531,-211.33 531,-211.33 531,-215.17 527.17,-219 523.33,-219"/>
<text text-anchor="middle" x="462.5" y="-203.8" font-family="Arial" font-size="14.00" fill="#c6c5fe">../../intake/src/app.ts</text>
</g>
<!-- ../../intake/src/matchmaker.ts -->
<g id="node7" class="node">
<title>../../intake/src/matchmaker.ts</title>
<path fill="none" stroke="#c6c5fe" d="M973.33,-259C973.33,-259 798.67,-259 798.67,-259 794.83,-259 791,-255.17 791,-251.33 791,-251.33 791,-243.67 791,-243.67 791,-239.83 794.83,-236 798.67,-236 798.67,-236 973.33,-236 973.33,-236 977.17,-236 981,-239.83 981,-243.67 981,-243.67 981,-251.33 981,-251.33 981,-255.17 977.17,-259 973.33,-259"/>
<text text-anchor="middle" x="886" y="-243.8" font-family="Arial" font-size="14.00" fill="#c6c5fe">../../intake/src/matchmaker.ts</text>
</g>
<!-- ../../intake/src/app.ts&#45;&gt;../../intake/src/matchmaker.ts -->
<g id="edge6" class="edge">
<title>../../intake/src/app.ts&#45;&gt;../../intake/src/matchmaker.ts</title>
<path fill="none" stroke="#757575" d="M520.87,-219.01C540.22,-222.53 561.98,-226.11 582,-228.5 647.92,-236.38 722.33,-241.11 780.91,-243.87"/>
<polygon fill="#757575" stroke="#757575" points="780.76,-247.37 790.92,-244.34 781.09,-240.38 780.76,-247.37"/>
</g>
<!-- ../../intake/src/routes.ts -->
<g id="node8" class="node">
<title>../../intake/src/routes.ts</title>
<path fill="none" stroke="#c6c5fe" d="M733.83,-219C733.83,-219 597.17,-219 597.17,-219 593.33,-219 589.5,-215.17 589.5,-211.33 589.5,-211.33 589.5,-203.67 589.5,-203.67 589.5,-199.83 593.33,-196 597.17,-196 597.17,-196 733.83,-196 733.83,-196 737.67,-196 741.5,-199.83 741.5,-203.67 741.5,-203.67 741.5,-211.33 741.5,-211.33 741.5,-215.17 737.67,-219 733.83,-219"/>
<text text-anchor="middle" x="665.5" y="-203.8" font-family="Arial" font-size="14.00" fill="#c6c5fe">../../intake/src/routes.ts</text>
</g>
<!-- ../../intake/src/app.ts&#45;&gt;../../intake/src/routes.ts -->
<g id="edge7" class="edge">
<title>../../intake/src/app.ts&#45;&gt;../../intake/src/routes.ts</title>
<path fill="none" stroke="#757575" d="M531.27,-207.5C546.6,-207.5 563.08,-207.5 579.03,-207.5"/>
<polygon fill="#757575" stroke="#757575" points="579.43,-211 589.43,-207.5 579.42,-204 579.43,-211"/>
</g>
<!-- ../../intake/src/seed.ts -->
<g id="node9" class="node">
<title>../../intake/src/seed.ts</title>
<path fill="none" stroke="#c6c5fe" d="M729.83,-160C729.83,-160 601.17,-160 601.17,-160 597.33,-160 593.5,-156.17 593.5,-152.33 593.5,-152.33 593.5,-144.67 593.5,-144.67 593.5,-140.83 597.33,-137 601.17,-137 601.17,-137 729.83,-137 729.83,-137 733.67,-137 737.5,-140.83 737.5,-144.67 737.5,-144.67 737.5,-152.33 737.5,-152.33 737.5,-156.17 733.67,-160 729.83,-160"/>
<text text-anchor="middle" x="665.5" y="-144.8" font-family="Arial" font-size="14.00" fill="#c6c5fe">../../intake/src/seed.ts</text>
</g>
<!-- ../../intake/src/app.ts&#45;&gt;../../intake/src/seed.ts -->
<g id="edge8" class="edge">
<title>../../intake/src/app.ts&#45;&gt;../../intake/src/seed.ts</title>
<path fill="none" stroke="#757575" d="M502.73,-195.98C534.86,-186.55 580.5,-173.16 615.12,-162.99"/>
<polygon fill="#757575" stroke="#757575" points="616.41,-166.26 625.02,-160.09 614.44,-159.55 616.41,-166.26"/>
</g>
<!-- ../../intake/src/store.ts -->
<g id="node10" class="node">
<title>../../intake/src/store.ts</title>
<path fill="none" stroke="#c6c5fe" d="M1178.83,-179C1178.83,-179 1049.17,-179 1049.17,-179 1045.33,-179 1041.5,-175.17 1041.5,-171.33 1041.5,-171.33 1041.5,-163.67 1041.5,-163.67 1041.5,-159.83 1045.33,-156 1049.17,-156 1049.17,-156 1178.83,-156 1178.83,-156 1182.67,-156 1186.5,-159.83 1186.5,-163.67 1186.5,-163.67 1186.5,-171.33 1186.5,-171.33 1186.5,-175.17 1182.67,-179 1178.83,-179"/>
<text text-anchor="middle" x="1114" y="-163.8" font-family="Arial" font-size="14.00" fill="#c6c5fe">../../intake/src/store.ts</text>
</g>
<!-- ../../intake/src/app.ts&#45;&gt;../../intake/src/store.ts -->
<g id="edge9" class="edge">
<title>../../intake/src/app.ts&#45;&gt;../../intake/src/store.ts</title>
<path fill="none" stroke="#757575" d="M475.36,-196C495.37,-177.49 537.98,-141.83 582,-128.5 754.85,-76.16 973.16,-126.43 1066.86,-153.17"/>
<polygon fill="#757575" stroke="#757575" points="1066.01,-156.57 1076.59,-155.99 1067.96,-149.85 1066.01,-156.57"/>
</g>
<!-- ../../intake/src/matchmaker.ts&#45;&gt;../../intake/src/store.ts -->
<g id="edge10" class="edge">
<title>../../intake/src/matchmaker.ts&#45;&gt;../../intake/src/store.ts</title>
<path fill="none" stroke="#757575" d="M937.29,-236C953.33,-231.91 971.05,-226.96 987,-221.5 1019.15,-210.5 1054.62,-194.98 1079.72,-183.39"/>
<polygon fill="#757575" stroke="#757575" points="1081.21,-186.56 1088.8,-179.17 1078.26,-180.21 1081.21,-186.56"/>
</g>
<!-- ../../intake/src/routes.ts&#45;&gt;../../intake/src/matchmaker.ts -->
<g id="edge12" class="edge">
<title>../../intake/src/routes.ts&#45;&gt;../../intake/src/matchmaker.ts</title>
<path fill="none" stroke="#757575" d="M729.41,-219.02C755.23,-223.74 785.29,-229.25 812.07,-234.15"/>
<polygon fill="#757575" stroke="#757575" points="811.69,-237.64 822.16,-236 812.95,-230.75 811.69,-237.64"/>
</g>
<!-- ../../intake/src/routes.ts&#45;&gt;../../intake/src/store.ts -->
<g id="edge13" class="edge">
<title>../../intake/src/routes.ts&#45;&gt;../../intake/src/store.ts</title>
<path fill="none" stroke="#757575" d="M741.81,-205.29C806.88,-202.84 903.36,-197.92 987,-188.5 1004.78,-186.5 1023.86,-183.67 1041.66,-180.74"/>
<polygon fill="#757575" stroke="#757575" points="1042.7,-184.12 1051.98,-179.01 1041.54,-177.21 1042.7,-184.12"/>
</g>
<!-- ../../intake/src/identity.ts -->
<g id="node11" class="node">
<title>../../intake/src/identity.ts</title>
<path fill="none" stroke="#cfffac" d="M956.83,-179C956.83,-179 815.17,-179 815.17,-179 811.33,-179 807.5,-175.17 807.5,-171.33 807.5,-171.33 807.5,-163.67 807.5,-163.67 807.5,-159.83 811.33,-156 815.17,-156 815.17,-156 956.83,-156 956.83,-156 960.67,-156 964.5,-159.83 964.5,-163.67 964.5,-163.67 964.5,-171.33 964.5,-171.33 964.5,-175.17 960.67,-179 956.83,-179"/>
<text text-anchor="middle" x="886" y="-163.8" font-family="Arial" font-size="14.00" fill="#cfffac">../../intake/src/identity.ts</text>
</g>
<!-- ../../intake/src/routes.ts&#45;&gt;../../intake/src/identity.ts -->
<g id="edge11" class="edge">
<title>../../intake/src/routes.ts&#45;&gt;../../intake/src/identity.ts</title>
<path fill="none" stroke="#757575" d="M729.41,-195.98C755.23,-191.26 785.29,-185.75 812.07,-180.85"/>
<polygon fill="#757575" stroke="#757575" points="812.95,-184.25 822.16,-179 811.69,-177.36 812.95,-184.25"/>
</g>
<!-- ../../intake/src/seed.ts&#45;&gt;../../intake/src/store.ts -->
<g id="edge14" class="edge">
<title>../../intake/src/seed.ts&#45;&gt;../../intake/src/store.ts</title>
<path fill="none" stroke="#757575" d="M737.62,-147.8C753.23,-147.68 769.67,-147.56 785,-147.5 874.78,-147.12 897.5,-140.44 987,-147.5 1005.26,-148.94 1024.87,-151.54 1043.05,-154.39"/>
<polygon fill="#757575" stroke="#757575" points="1042.55,-157.86 1052.98,-156 1043.67,-150.95 1042.55,-157.86"/>
</g>
<!-- ../../intake/src/types.ts -->
<g id="node12" class="node">
<title>../../intake/src/types.ts</title>
<path fill="none" stroke="#cfffac" d="M1380.33,-179C1380.33,-179 1248.67,-179 1248.67,-179 1244.83,-179 1241,-175.17 1241,-171.33 1241,-171.33 1241,-163.67 1241,-163.67 1241,-159.83 1244.83,-156 1248.67,-156 1248.67,-156 1380.33,-156 1380.33,-156 1384.17,-156 1388,-159.83 1388,-163.67 1388,-163.67 1388,-171.33 1388,-171.33 1388,-175.17 1384.17,-179 1380.33,-179"/>
<text text-anchor="middle" x="1314.5" y="-163.8" font-family="Arial" font-size="14.00" fill="#cfffac">../../intake/src/types.ts</text>
</g>
<!-- ../../intake/src/store.ts&#45;&gt;../../intake/src/types.ts -->
<g id="edge15" class="edge">
<title>../../intake/src/store.ts&#45;&gt;../../intake/src/types.ts</title>
<path fill="none" stroke="#757575" d="M1186.66,-167.5C1201.01,-167.5 1216.19,-167.5 1230.87,-167.5"/>
<polygon fill="#757575" stroke="#757575" points="1230.94,-171 1240.94,-167.5 1230.94,-164 1230.94,-171"/>
</g>
<!-- ../../negotiate/src/index.ts -->
<g id="node13" class="node">
<title>../../negotiate/src/index.ts</title>
<path fill="none" stroke="#c6c5fe" d="M538.33,-63C538.33,-63 386.67,-63 386.67,-63 382.83,-63 379,-59.17 379,-55.33 379,-55.33 379,-47.67 379,-47.67 379,-43.83 382.83,-40 386.67,-40 386.67,-40 538.33,-40 538.33,-40 542.17,-40 546,-43.83 546,-47.67 546,-47.67 546,-55.33 546,-55.33 546,-59.17 542.17,-63 538.33,-63"/>
<text text-anchor="middle" x="462.5" y="-47.8" font-family="Arial" font-size="14.00" fill="#c6c5fe">../../negotiate/src/index.ts</text>
</g>
<!-- ../../negotiate/src/room.ts -->
<g id="node14" class="node">
<title>../../negotiate/src/room.ts</title>
<path fill="none" stroke="#c6c5fe" d="M961.33,-42C961.33,-42 810.67,-42 810.67,-42 806.83,-42 803,-38.17 803,-34.33 803,-34.33 803,-26.67 803,-26.67 803,-22.83 806.83,-19 810.67,-19 810.67,-19 961.33,-19 961.33,-19 965.17,-19 969,-22.83 969,-26.67 969,-26.67 969,-34.33 969,-34.33 969,-38.17 965.17,-42 961.33,-42"/>
<text text-anchor="middle" x="886" y="-26.8" font-family="Arial" font-size="14.00" fill="#c6c5fe">../../negotiate/src/room.ts</text>
</g>
<!-- ../../negotiate/src/index.ts&#45;&gt;../../negotiate/src/room.ts -->
<g id="edge16" class="edge">
<title>../../negotiate/src/index.ts&#45;&gt;../../negotiate/src/room.ts</title>
<path fill="none" stroke="#757575" d="M546.02,-47.39C616.86,-43.86 718.9,-38.78 792.49,-35.11"/>
<polygon fill="#757575" stroke="#757575" points="792.86,-38.59 802.68,-34.6 792.52,-31.6 792.86,-38.59"/>
</g>
<!-- ../../negotiate/src/settle.ts -->
<g id="node15" class="node">
<title>../../negotiate/src/settle.ts</title>
<path fill="none" stroke="#c6c5fe" d="M741.33,-23C741.33,-23 589.67,-23 589.67,-23 585.83,-23 582,-19.17 582,-15.33 582,-15.33 582,-7.67 582,-7.67 582,-3.83 585.83,0 589.67,0 589.67,0 741.33,0 741.33,0 745.17,0 749,-3.83 749,-7.67 749,-7.67 749,-15.33 749,-15.33 749,-19.17 745.17,-23 741.33,-23"/>
<text text-anchor="middle" x="665.5" y="-7.8" font-family="Arial" font-size="14.00" fill="#c6c5fe">../../negotiate/src/settle.ts</text>
</g>
<!-- ../../negotiate/src/index.ts&#45;&gt;../../negotiate/src/settle.ts -->
<g id="edge17" class="edge">
<title>../../negotiate/src/index.ts&#45;&gt;../../negotiate/src/settle.ts</title>
<path fill="none" stroke="#757575" d="M521.37,-39.98C544.91,-35.3 572.29,-29.85 596.76,-24.98"/>
<polygon fill="#757575" stroke="#757575" points="597.57,-28.39 606.69,-23 596.2,-21.52 597.57,-28.39"/>
</g>
<!-- ../../negotiate/src/protocol.ts -->
<g id="node16" class="node">
<title>../../negotiate/src/protocol.ts</title>
<path fill="none" stroke="#cfffac" d="M1197.33,-42C1197.33,-42 1030.67,-42 1030.67,-42 1026.83,-42 1023,-38.17 1023,-34.33 1023,-34.33 1023,-26.67 1023,-26.67 1023,-22.83 1026.83,-19 1030.67,-19 1030.67,-19 1197.33,-19 1197.33,-19 1201.17,-19 1205,-22.83 1205,-26.67 1205,-26.67 1205,-34.33 1205,-34.33 1205,-38.17 1201.17,-42 1197.33,-42"/>
<text text-anchor="middle" x="1114" y="-26.8" font-family="Arial" font-size="14.00" fill="#cfffac">../../negotiate/src/protocol.ts</text>
</g>
<!-- ../../negotiate/src/room.ts&#45;&gt;../../negotiate/src/protocol.ts -->
<g id="edge18" class="edge">
<title>../../negotiate/src/room.ts&#45;&gt;../../negotiate/src/protocol.ts</title>
<path fill="none" stroke="#757575" d="M969.23,-30.5C983.38,-30.5 998.23,-30.5 1012.79,-30.5"/>
<polygon fill="#757575" stroke="#757575" points="1012.81,-34 1022.81,-30.5 1012.81,-27 1012.81,-34"/>
</g>
<!-- ../../negotiate/src/settle.ts&#45;&gt;../../negotiate/src/room.ts -->
<g id="edge19" class="edge">
<title>../../negotiate/src/settle.ts&#45;&gt;../../negotiate/src/room.ts</title>
<path fill="none" stroke="#757575" d="M749.11,-18.68C763.21,-19.91 777.94,-21.19 792.28,-22.44"/>
<polygon fill="#757575" stroke="#757575" points="792.37,-25.96 802.64,-23.34 792.98,-18.99 792.37,-25.96"/>
</g>
<!-- ../../reference&#45;agent/src/negotiate.ts -->
<g id="node17" class="node">
<title>../../reference&#45;agent/src/negotiate.ts</title>
<path fill="none" stroke="#cfffac" d="M335.33,-321C335.33,-321 120.67,-321 120.67,-321 116.83,-321 113,-317.17 113,-313.33 113,-313.33 113,-305.67 113,-305.67 113,-301.83 116.83,-298 120.67,-298 120.67,-298 335.33,-298 335.33,-298 339.17,-298 343,-301.83 343,-305.67 343,-305.67 343,-313.33 343,-313.33 343,-317.17 339.17,-321 335.33,-321"/>
<text text-anchor="middle" x="228" y="-305.8" font-family="Arial" font-size="14.00" fill="#cfffac">../../reference&#45;agent/src/negotiate.ts</text>
</g>
<!-- run&#45;e2e.ts -->
<g id="node18" class="node">
<title>run&#45;e2e.ts</title>
<path fill="none" stroke="#c6c5fe" d="M69.33,-321C69.33,-321 7.67,-321 7.67,-321 3.83,-321 0,-317.17 0,-313.33 0,-313.33 0,-305.67 0,-305.67 0,-301.83 3.83,-298 7.67,-298 7.67,-298 69.33,-298 69.33,-298 73.17,-298 77,-301.83 77,-305.67 77,-305.67 77,-313.33 77,-313.33 77,-317.17 73.17,-321 69.33,-321"/>
<text text-anchor="middle" x="38.5" y="-305.8" font-family="Arial" font-size="14.00" fill="#c6c5fe">run&#45;e2e.ts</text>
</g>
<!-- run&#45;e2e.ts&#45;&gt;../../chain/src/reputation.ts -->
<g id="edge20" class="edge">
<title>run&#45;e2e.ts&#45;&gt;../../chain/src/reputation.ts</title>
<path fill="none" stroke="#757575" d="M73.9,-321.07C86.11,-324.71 100.04,-328.34 113,-330.5 354.43,-370.71 643.67,-373.93 790.07,-372.46"/>
<polygon fill="#757575" stroke="#757575" points="790.4,-375.95 800.36,-372.34 790.32,-368.95 790.4,-375.95"/>
</g>
<!-- run&#45;e2e.ts&#45;&gt;../../reference&#45;agent/src/negotiate.ts -->
<g id="edge21" class="edge">
<title>run&#45;e2e.ts&#45;&gt;../../reference&#45;agent/src/negotiate.ts</title>
<path fill="none" stroke="#757575" d="M77.44,-309.5C85.14,-309.5 93.63,-309.5 102.53,-309.5"/>
<polygon fill="#757575" stroke="#757575" points="102.74,-313 112.73,-309.5 102.73,-306 102.74,-313"/>
</g>
<!-- start&#45;all.ts -->
<g id="node19" class="node">
<title>start&#45;all.ts</title>
<path fill="none" stroke="#c6c5fe" d="M257.83,-240C257.83,-240 198.17,-240 198.17,-240 194.33,-240 190.5,-236.17 190.5,-232.33 190.5,-232.33 190.5,-224.67 190.5,-224.67 190.5,-220.83 194.33,-217 198.17,-217 198.17,-217 257.83,-217 257.83,-217 261.67,-217 265.5,-220.83 265.5,-224.67 265.5,-224.67 265.5,-232.33 265.5,-232.33 265.5,-236.17 261.67,-240 257.83,-240"/>
<text text-anchor="middle" x="228" y="-224.8" font-family="Arial" font-size="14.00" fill="#c6c5fe">start&#45;all.ts</text>
</g>
<!-- run&#45;e2e.ts&#45;&gt;start&#45;all.ts -->
<g id="edge22" class="edge">
<title>run&#45;e2e.ts&#45;&gt;start&#45;all.ts</title>
<path fill="none" stroke="#757575" d="M66.36,-297.89C99.08,-283.76 154.48,-259.83 190.91,-244.09"/>
<polygon fill="#757575" stroke="#757575" points="192.39,-247.26 200.19,-240.08 189.62,-240.84 192.39,-247.26"/>
</g>
<!-- start&#45;all.ts&#45;&gt;../../chain/src/app.ts -->
<g id="edge23" class="edge">
<title>start&#45;all.ts&#45;&gt;../../chain/src/app.ts</title>
<path fill="none" stroke="#757575" d="M265.58,-237.94C303.55,-247.74 363.36,-263.17 406.91,-274.41"/>
<polygon fill="#757575" stroke="#757575" points="406.22,-277.85 416.77,-276.96 407.97,-271.07 406.22,-277.85"/>
</g>
<!-- start&#45;all.ts&#45;&gt;../../intake/src/app.ts -->
<g id="edge24" class="edge">
<title>start&#45;all.ts&#45;&gt;../../intake/src/app.ts</title>
<path fill="none" stroke="#757575" d="M265.58,-225.2C297.18,-222.34 343.9,-218.12 383.79,-214.52"/>
<polygon fill="#757575" stroke="#757575" points="384.13,-218 393.78,-213.62 383.5,-211.03 384.13,-218"/>
</g>
<!-- start&#45;all.ts&#45;&gt;../../negotiate/src/index.ts -->
<g id="edge25" class="edge">
<title>start&#45;all.ts&#45;&gt;../../negotiate/src/index.ts</title>
<path fill="none" stroke="#757575" d="M244.25,-216.89C283.91,-186.69 390.47,-105.57 438.03,-69.37"/>
<polygon fill="#757575" stroke="#757575" points="440.35,-72 446.19,-63.16 436.11,-66.43 440.35,-72"/>
</g>
</g>
</svg>
